<?xml version="1.0" standalone="no"?>
<!DOCTYPE svg PUBLIC "-//W3C//DTD SVG 20010904//EN"
 "http://www.w3.org/TR/2001/REC-SVG-20010904/DTD/svg10.dtd">
<svg version="1.0" xmlns="http://www.w3.org/2000/svg"
 width="158.000000pt" height="158.000000pt" viewBox="0 0 158.000000 158.000000"
 preserveAspectRatio="xMidYMid meet">
<metadata>
Created by potrace 1.14, written by Peter Selinger 2001-2017
</metadata>
<g transform="translate(0.000000,158.000000) scale(0.100000,-0.100000)"
fill="#000000" stroke="none">
<path d="M545 1458 c-33 -28 -84 -71 -114 -97 -30 -25 -83 -68 -117 -96 l-63
-50 0 -125 0 -125 42 -32 c23 -17 51 -40 62 -50 11 -10 61 -52 110 -93 50 -41
95 -79 101 -85 26 -23 73 -63 124 -105 30 -25 72 -60 92 -79 l37 -33 -67 -57
c-37 -31 -76 -64 -87 -73 -11 -9 -28 -23 -38 -31 -16 -11 -19 -29 -20 -125 0
-62 2 -115 5 -118 4 -3 84 60 180 140 l173 146 0 120 1 121 -76 62 c-41 34
-77 64 -80 67 -3 3 -43 37 -90 75 -46 39 -92 77 -101 85 -19 18 -44 40 -143
120 -42 35 -76 66 -76 69 0 4 33 34 73 67 39 33 86 73 103 87 l31 27 34 -29
c175 -149 314 -260 318 -255 3 3 6 55 6 115 l1 110 -166 137 c-91 75 -169 142
-173 149 -12 19 -16 17 -82 -39z"/>
<path d="M1115 969 l0 -120 55 -46 c30 -24 66 -55 80 -66 14 -12 60 -51 103
-86 42 -35 77 -67 77 -71 0 -4 -15 -19 -32 -33 -18 -14 -42 -33 -53 -43 -11
-11 -45 -39 -75 -64 -30 -25 -69 -58 -86 -73 -18 -15 -40 -34 -50 -41 -15 -12
-18 -30 -19 -130 -1 -85 2 -116 11 -116 7 0 14 4 16 8 2 4 86 77 188 162 102
85 200 168 218 184 l32 29 0 121 -1 121 -80 65 c-44 36 -88 72 -97 80 -9 8
-42 35 -72 60 -30 25 -57 47 -60 50 -6 7 -120 102 -140 117 -14 10 -15 -3 -15
-108z"/>
<path d="M103 788 c-21 -18 -52 -46 -70 -62 l-33 -29 1 -121 1 -121 199 -165
c110 -91 210 -175 224 -187 13 -13 28 -23 32 -23 5 0 8 52 8 116 l0 115 -55
46 c-30 24 -66 55 -80 66 -14 12 -60 51 -103 87 -42 35 -77 67 -77 70 0 4 29
30 65 60 36 30 65 56 65 60 0 3 -8 12 -18 20 -9 8 -41 34 -69 58 l-52 43 -38
-33z"/>
</g>
</svg>
