<svg width="100" height="100" viewBox="0 0 100 100" fill="none" xmlns="http://www.w3.org/2000/svg">
<g clip-path="url(#clip0_1753_6482)">
<path d="M45.4551 38.5453C45.4551 29.759 52.5778 22.6362 61.3642 22.6362H84.0914C92.8778 22.6362 100.001 29.759 100.001 38.5453V61.2726C100.001 70.0589 92.8778 77.1817 84.0914 77.1817H61.3642C52.5778 77.1817 45.4551 70.0589 45.4551 61.2726V38.5453Z" fill="#04211A" fill-opacity="0.4"/>
<path d="M45.9551 38.5453C45.9551 30.0351 52.854 23.1362 61.3642 23.1362H84.0914C92.6016 23.1362 99.5005 30.0351 99.5005 38.5453V61.2726C99.5005 69.7828 92.6016 76.6817 84.0914 76.6817H61.3642C52.854 76.6817 45.9551 69.7828 45.9551 61.2726V38.5453Z" stroke="#66FFD1" stroke-opacity="0.2"/>
<path fill-rule="evenodd" clip-rule="evenodd" d="M27.5 42.5592L40 67.5595L46.7417 54.0758L72.175 54.0757C66.3043 65.3701 55.5793 77.8701 40 91.5758C24.4207 77.8701 13.6957 65.3701 7.82502 54.0757L21.7418 54.0758L27.5 42.5592ZM55 12.4092C67.4264 12.4092 77.5 22.4828 77.5 34.9092C77.5 38.3709 76.8988 41.982 75.6963 45.7424L50.9083 45.7425L46.25 36.4256L40 48.9217L27.5 23.9256L16.5875 45.7425L4.30372 45.7424C3.10124 41.982 2.5 38.3709 2.5 34.9092C2.5 22.4828 12.5736 12.4092 25 12.4092C30.7642 12.4092 36.0222 14.5768 40.0033 18.1413C43.9811 14.5754 49.2376 12.4092 55 12.4092Z" fill="#00FFB2"/>
<g filter="url(#filter0_b_1753_6482)">
<path fill-rule="evenodd" clip-rule="evenodd" d="M27.5 42.5592L21.7418 54.0758L7.82502 54.0757C8.04076 54.4907 8.26305 54.9074 8.49189 55.3257C14.4905 66.2904 24.9932 78.3738 40 91.5758C55.0068 78.3738 65.5095 66.2904 71.5081 55.3257C71.737 54.9074 71.9592 54.4907 72.175 54.0757L46.7417 54.0758L40 67.5595L27.5 42.5592ZM47.5142 55.3258L40 70.3546L27.5 45.3543L22.5144 55.3259L9.92067 55.3257C15.7605 65.7505 25.7593 77.2788 40 89.9081C54.2407 77.2788 64.2395 65.7505 70.0793 55.3257L47.5142 55.3258ZM50.9083 45.7425L75.6963 45.7424C76.8988 41.982 77.5 38.3709 77.5 34.9092C77.5 22.4828 67.4264 12.4092 55 12.4092C49.2376 12.4092 43.9811 14.5754 40.0033 18.1413C36.0222 14.5768 30.7642 12.4092 25 12.4092C12.5736 12.4092 2.5 22.4828 2.5 34.9092C2.5 38.3709 3.10124 41.982 4.30372 45.7424L16.5875 45.7425L27.5 23.9256L40 48.9217L46.25 36.4256L50.9083 45.7425ZM40.0001 46.1271L27.5001 21.1311L15.8151 44.4925L5.22658 44.4924C4.23777 41.1541 3.75 37.9611 3.75 34.9092C3.75 23.1731 13.2639 13.6592 25 13.6592C30.4448 13.6592 35.4087 15.7053 39.1694 19.0726L40.0038 19.8196L40.8376 19.0721C44.5948 15.704 49.5569 13.6592 55 13.6592C66.736 13.6592 76.25 23.1731 76.25 34.9092C76.25 37.9611 75.7622 41.1541 74.7734 44.4924L51.6809 44.4925L46.2502 33.6308L40.0001 46.1271Z" fill="url(#paint0_linear_1753_6482)"/>
<path fill-rule="evenodd" clip-rule="evenodd" d="M27.5 42.5592L21.7418 54.0758L7.82502 54.0757C8.04076 54.4907 8.26305 54.9074 8.49189 55.3257C14.4905 66.2904 24.9932 78.3738 40 91.5758C55.0068 78.3738 65.5095 66.2904 71.5081 55.3257C71.737 54.9074 71.9592 54.4907 72.175 54.0757L46.7417 54.0758L40 67.5595L27.5 42.5592ZM47.5142 55.3258L40 70.3546L27.5 45.3543L22.5144 55.3259L9.92067 55.3257C15.7605 65.7505 25.7593 77.2788 40 89.9081C54.2407 77.2788 64.2395 65.7505 70.0793 55.3257L47.5142 55.3258ZM50.9083 45.7425L75.6963 45.7424C76.8988 41.982 77.5 38.3709 77.5 34.9092C77.5 22.4828 67.4264 12.4092 55 12.4092C49.2376 12.4092 43.9811 14.5754 40.0033 18.1413C36.0222 14.5768 30.7642 12.4092 25 12.4092C12.5736 12.4092 2.5 22.4828 2.5 34.9092C2.5 38.3709 3.10124 41.982 4.30372 45.7424L16.5875 45.7425L27.5 23.9256L40 48.9217L46.25 36.4256L50.9083 45.7425ZM40.0001 46.1271L27.5001 21.1311L15.8151 44.4925L5.22658 44.4924C4.23777 41.1541 3.75 37.9611 3.75 34.9092C3.75 23.1731 13.2639 13.6592 25 13.6592C30.4448 13.6592 35.4087 15.7053 39.1694 19.0726L40.0038 19.8196L40.8376 19.0721C44.5948 15.704 49.5569 13.6592 55 13.6592C66.736 13.6592 76.25 23.1731 76.25 34.9092C76.25 37.9611 75.7622 41.1541 74.7734 44.4924L51.6809 44.4925L46.2502 33.6308L40.0001 46.1271Z" fill="url(#paint1_radial_1753_6482)"/>
</g>
</g>
<defs>
<filter id="filter0_b_1753_6482" x="-27.5" y="-17.5908" width="135" height="139.167" filterUnits="userSpaceOnUse" color-interpolation-filters="sRGB">
<feFlood flood-opacity="0" result="BackgroundImageFix"/>
<feGaussianBlur in="BackgroundImageFix" stdDeviation="15"/>
<feComposite in2="SourceAlpha" operator="in" result="effect1_backgroundBlur_1753_6482"/>
<feBlend mode="normal" in="SourceGraphic" in2="effect1_backgroundBlur_1753_6482" result="shape"/>
</filter>
<linearGradient id="paint0_linear_1753_6482" x1="13.2934" y1="9.5818" x2="85.4741" y2="49.5074" gradientUnits="userSpaceOnUse">
<stop offset="0.188941" stop-color="#E7F0FF" stop-opacity="0.523483"/>
<stop offset="0.526042" stop-color="#88A4FF"/>
<stop offset="1" stop-color="#B4D2FF" stop-opacity="0.1"/>
</linearGradient>
<radialGradient id="paint1_radial_1753_6482" cx="0" cy="0" r="1" gradientUnits="userSpaceOnUse" gradientTransform="translate(13.7085 88.9841) rotate(-52.4835) scale(60.8957 98.3259)">
<stop stop-color="white"/>
<stop offset="1" stop-color="white" stop-opacity="0"/>
</radialGradient>
<clipPath id="clip0_1753_6482">
<rect width="100" height="100" fill="white"/>
</clipPath>
</defs>
</svg>
