<svg width="100" height="100" viewBox="0 0 100 100" fill="none" xmlns="http://www.w3.org/2000/svg">
<g clip-path="url(#clip0_1753_6483)">
<path d="M0 25C0 20.8579 3.35786 17.5 7.5 17.5H57C61.1421 17.5 64.5 20.8579 64.5 25V92.5C64.5 96.6421 61.1421 100 57 100H7.5C3.35786 100 0 96.6421 0 92.5V25Z" fill="#04211A" fill-opacity="0.4"/>
<path d="M0.5 25C0.5 21.134 3.63401 18 7.5 18H57C60.866 18 64 21.134 64 25V92.5C64 96.366 60.866 99.5 57 99.5H7.5C3.63401 99.5 0.5 96.366 0.5 92.5V25Z" stroke="#66FFD1" stroke-opacity="0.2"/>
<g clip-path="url(#clip1_1753_6483)">
<path d="M104.82 31.5331L61.4531 11.5705C60.0464 10.9226 58.5481 10.5957 57 10.5957C55.4519 10.5957 53.954 10.9226 52.5469 11.5705L9.17964 31.5331C8.46282 31.8644 8 32.5866 8 33.3757C8 34.1649 8.46282 34.8871 9.17964 35.2184L52.5469 55.1809C53.9536 55.8288 55.4519 56.1573 57 56.1573C58.5481 56.1573 60.0464 55.8288 61.4534 55.1809L95.6792 39.427V55.291C94.321 55.4441 93.2617 56.6002 93.2617 57.9971C93.2617 59.2142 94.0672 60.2679 95.2152 60.6036L92.9007 75.8761H103.557L101.243 60.6036C102.391 60.2679 103.196 59.2142 103.196 57.9971C103.196 56.6002 102.137 55.4441 100.779 55.291V37.0791L104.821 35.2184C105.537 34.8871 106 34.1649 106 33.3757C106 32.5866 105.537 31.8644 104.82 31.5331Z" fill="#00FFB2"/>
<g filter="url(#filter0_b_1753_6483)">
<path fill-rule="evenodd" clip-rule="evenodd" d="M95.6792 55.291C94.321 55.4441 93.2617 56.6002 93.2617 57.9971C93.2617 59.2142 94.0672 60.2679 95.2152 60.6036L92.9007 75.8761H103.557L101.243 60.6036C102.391 60.2679 103.196 59.2142 103.196 57.9971C103.196 56.6002 102.137 55.4441 100.779 55.291V37.0791L104.821 35.2184C105.537 34.8871 106 34.1649 106 33.3757C106 32.5866 105.537 31.8644 104.82 31.5331L61.4531 11.5705C60.0464 10.9226 58.5481 10.5957 57 10.5957C55.4519 10.5957 53.954 10.9226 52.5469 11.5705L9.17964 31.5331C8.46282 31.8644 8 32.5866 8 33.3757C8 34.1649 8.46282 34.8871 9.17964 35.2184L52.5469 55.1809C53.9536 55.8288 55.4519 56.1573 57 56.1573C58.5481 56.1573 60.0464 55.8288 61.4534 55.1809L95.6792 39.427V55.291ZM104.307 34.1062C104.308 34.1061 104.307 34.1063 104.307 34.1062C104.592 33.9745 104.775 33.6856 104.775 33.3757C104.775 33.0663 104.592 32.7775 104.308 32.6456C104.307 32.6454 104.307 32.6452 104.306 32.645L60.9408 12.6833C59.6956 12.1098 58.372 11.8207 57 11.8207C55.6281 11.8207 54.305 12.1096 53.0593 12.6832L9.6936 32.645C9.69359 32.645 9.69362 32.645 9.6936 32.645C9.40914 32.7765 9.225 33.0654 9.225 33.3757C9.225 33.6857 9.40872 33.9743 9.69268 34.106C9.69299 34.1061 9.69237 34.1059 9.69268 34.106L53.0592 54.0681C54.3051 54.642 55.6289 54.9323 57 54.9323C58.3711 54.9323 59.6947 54.6422 60.9411 54.0682L96.9042 37.5146V56.3856L95.8164 56.5083C95.0698 56.5924 94.4867 57.2316 94.4867 57.9971C94.4867 58.6645 94.9279 59.2433 95.559 59.4279L96.5868 59.7284L94.3254 74.6511H102.133L99.8718 59.7285L100.899 59.4279C101.53 59.2434 101.971 58.6646 101.971 57.9971C101.971 57.2316 101.388 56.5924 100.642 56.5083L99.554 56.3856V36.2944L104.307 34.1062Z" fill="url(#paint0_linear_1753_6483)"/>
<path fill-rule="evenodd" clip-rule="evenodd" d="M95.6792 55.291C94.321 55.4441 93.2617 56.6002 93.2617 57.9971C93.2617 59.2142 94.0672 60.2679 95.2152 60.6036L92.9007 75.8761H103.557L101.243 60.6036C102.391 60.2679 103.196 59.2142 103.196 57.9971C103.196 56.6002 102.137 55.4441 100.779 55.291V37.0791L104.821 35.2184C105.537 34.8871 106 34.1649 106 33.3757C106 32.5866 105.537 31.8644 104.82 31.5331L61.4531 11.5705C60.0464 10.9226 58.5481 10.5957 57 10.5957C55.4519 10.5957 53.954 10.9226 52.5469 11.5705L9.17964 31.5331C8.46282 31.8644 8 32.5866 8 33.3757C8 34.1649 8.46282 34.8871 9.17964 35.2184L52.5469 55.1809C53.9536 55.8288 55.4519 56.1573 57 56.1573C58.5481 56.1573 60.0464 55.8288 61.4534 55.1809L95.6792 39.427V55.291ZM104.307 34.1062C104.308 34.1061 104.307 34.1063 104.307 34.1062C104.592 33.9745 104.775 33.6856 104.775 33.3757C104.775 33.0663 104.592 32.7775 104.308 32.6456C104.307 32.6454 104.307 32.6452 104.306 32.645L60.9408 12.6833C59.6956 12.1098 58.372 11.8207 57 11.8207C55.6281 11.8207 54.305 12.1096 53.0593 12.6832L9.6936 32.645C9.69359 32.645 9.69362 32.645 9.6936 32.645C9.40914 32.7765 9.225 33.0654 9.225 33.3757C9.225 33.6857 9.40872 33.9743 9.69268 34.106C9.69299 34.1061 9.69237 34.1059 9.69268 34.106L53.0592 54.0681C54.3051 54.642 55.6289 54.9323 57 54.9323C58.3711 54.9323 59.6947 54.6422 60.9411 54.0682L96.9042 37.5146V56.3856L95.8164 56.5083C95.0698 56.5924 94.4867 57.2316 94.4867 57.9971C94.4867 58.6645 94.9279 59.2433 95.559 59.4279L96.5868 59.7284L94.3254 74.6511H102.133L99.8718 59.7285L100.899 59.4279C101.53 59.2434 101.971 58.6646 101.971 57.9971C101.971 57.2316 101.388 56.5924 100.642 56.5083L99.554 56.3856V36.2944L104.307 34.1062Z" fill="url(#paint1_radial_1753_6483)"/>
</g>
<path d="M57.0006 63.3855C54.848 63.3855 52.7622 62.9278 50.8017 62.0257L29.5898 52.2607V71.7149C29.5898 75.9859 42.4956 81.4041 57.0006 81.4041C71.5057 81.4041 84.4117 75.9857 84.4117 71.7149V52.2607L63.1987 62.0257C61.2392 62.9278 59.1539 63.3855 57.0006 63.3855Z" fill="#00FFB2"/>
<g filter="url(#filter1_b_1753_6483)">
<path fill-rule="evenodd" clip-rule="evenodd" d="M50.2894 63.1385L30.8148 54.1732V71.7149C30.8148 72.1808 31.2092 73.002 32.5814 74.0609C33.8878 75.069 35.8326 76.0948 38.2857 77.014C43.1813 78.8485 49.8878 80.1791 57.0006 80.1791C64.1134 80.1791 70.82 78.8484 75.7157 77.0139C78.1688 76.0947 80.1137 75.0689 81.4201 74.0608C82.7923 73.0019 83.1867 72.1807 83.1867 71.7149V54.1732L63.711 63.1385C63.7109 63.1385 63.711 63.1384 63.711 63.1385C61.5913 64.1143 59.3311 64.6105 57.0006 64.6105C54.6707 64.6105 52.4101 64.1142 50.2894 63.1385ZM84.4117 52.2607V71.7149C84.4117 75.9857 71.5057 81.4041 57.0006 81.4041C42.4956 81.4041 29.5898 75.9859 29.5898 71.7149V52.2607L50.8017 62.0257C52.7623 62.9278 54.848 63.3855 57.0006 63.3855C59.1539 63.3855 61.2392 62.9278 63.1987 62.0257L84.4117 52.2607Z" fill="url(#paint2_linear_1753_6483)"/>
<path fill-rule="evenodd" clip-rule="evenodd" d="M50.2894 63.1385L30.8148 54.1732V71.7149C30.8148 72.1808 31.2092 73.002 32.5814 74.0609C33.8878 75.069 35.8326 76.0948 38.2857 77.014C43.1813 78.8485 49.8878 80.1791 57.0006 80.1791C64.1134 80.1791 70.82 78.8484 75.7157 77.0139C78.1688 76.0947 80.1137 75.0689 81.4201 74.0608C82.7923 73.0019 83.1867 72.1807 83.1867 71.7149V54.1732L63.711 63.1385C63.7109 63.1385 63.711 63.1384 63.711 63.1385C61.5913 64.1143 59.3311 64.6105 57.0006 64.6105C54.6707 64.6105 52.4101 64.1142 50.2894 63.1385ZM84.4117 52.2607V71.7149C84.4117 75.9857 71.5057 81.4041 57.0006 81.4041C42.4956 81.4041 29.5898 75.9859 29.5898 71.7149V52.2607L50.8017 62.0257C52.7623 62.9278 54.848 63.3855 57.0006 63.3855C59.1539 63.3855 61.2392 62.9278 63.1987 62.0257L84.4117 52.2607Z" fill="url(#paint3_radial_1753_6483)"/>
</g>
</g>
</g>
<defs>
<filter id="filter0_b_1753_6483" x="-22" y="-19.4043" width="158" height="125.28" filterUnits="userSpaceOnUse" color-interpolation-filters="sRGB">
<feFlood flood-opacity="0" result="BackgroundImageFix"/>
<feGaussianBlur in="BackgroundImageFix" stdDeviation="15"/>
<feComposite in2="SourceAlpha" operator="in" result="effect1_backgroundBlur_1753_6483"/>
<feBlend mode="normal" in="SourceGraphic" in2="effect1_backgroundBlur_1753_6483" result="shape"/>
</filter>
<filter id="filter1_b_1753_6483" x="-0.410156" y="22.2607" width="114.822" height="89.1436" filterUnits="userSpaceOnUse" color-interpolation-filters="sRGB">
<feFlood flood-opacity="0" result="BackgroundImageFix"/>
<feGaussianBlur in="BackgroundImageFix" stdDeviation="15"/>
<feComposite in2="SourceAlpha" operator="in" result="effect1_backgroundBlur_1753_6483"/>
<feBlend mode="normal" in="SourceGraphic" in2="effect1_backgroundBlur_1753_6483" result="shape"/>
</filter>
<linearGradient id="paint0_linear_1753_6483" x1="22.1034" y1="8.26426" x2="91.761" y2="69.3198" gradientUnits="userSpaceOnUse">
<stop offset="0.188941" stop-color="#E7F0FF" stop-opacity="0.523483"/>
<stop offset="0.526042" stop-color="#88A4FF"/>
<stop offset="1" stop-color="#B4D2FF" stop-opacity="0.1"/>
</linearGradient>
<radialGradient id="paint1_radial_1753_6483" cx="0" cy="0" r="1" gradientUnits="userSpaceOnUse" gradientTransform="translate(22.6458 73.739) rotate(-39.4178) scale(62.7255 102.853)">
<stop stop-color="white"/>
<stop offset="1" stop-color="white" stop-opacity="0"/>
</radialGradient>
<linearGradient id="paint2_linear_1753_6483" x1="37.4793" y1="51.2199" x2="68.7099" y2="85.5208" gradientUnits="userSpaceOnUse">
<stop offset="0.188941" stop-color="#E7F0FF" stop-opacity="0.523483"/>
<stop offset="0.526042" stop-color="#88A4FF"/>
<stop offset="1" stop-color="#B4D2FF" stop-opacity="0.1"/>
</linearGradient>
<radialGradient id="paint3_radial_1753_6483" cx="0" cy="0" r="1" gradientUnits="userSpaceOnUse" gradientTransform="translate(37.7828 80.45) rotate(-33.2625) scale(32.4187 49.6989)">
<stop stop-color="white"/>
<stop offset="1" stop-color="white" stop-opacity="0"/>
</radialGradient>
<clipPath id="clip0_1753_6483">
<rect width="100" height="100" fill="white"/>
</clipPath>
<clipPath id="clip1_1753_6483">
<rect width="98" height="98" fill="white" transform="translate(8 -3)"/>
</clipPath>
</defs>
</svg>
