<svg width="100" height="100" viewBox="0 0 100 100" fill="none" xmlns="http://www.w3.org/2000/svg">
<path d="M46.2886 33.1111C46.2886 44.7705 36.8219 54.2222 25.1443 54.2222C13.4666 54.2222 4 44.7705 4 33.1111C4 21.4518 13.4666 12 25.1443 12C36.8219 12 46.2886 21.4518 46.2886 33.1111Z" fill="#04211A" fill-opacity="0.4"/>
<path d="M45.7886 33.1111C45.7886 44.4936 36.5465 53.7222 25.1443 53.7222C13.742 53.7222 4.5 44.4936 4.5 33.1111C4.5 21.7286 13.742 12.5 25.1443 12.5C36.5465 12.5 45.7886 21.7286 45.7886 33.1111Z" stroke="#66FFD1" stroke-opacity="0.2"/>
<g filter="url(#filter0_b_1753_6481)">
<path d="M54.1757 93.4792C52.9858 93.1898 51.8539 92.2553 51.3509 91.1491C50.9586 90.2879 50.9586 88.6375 51.3509 87.7815C51.6404 87.1512 52.9691 85.7787 53.2907 85.7787C53.3936 85.7787 53.4515 84.7561 53.4515 82.9063V80.0346L52.5305 80.1118C47.9969 80.4784 44.6447 81.2 42.0303 82.3719L41.1028 82.7899L41.4952 83.208C42.7339 84.531 42.9969 86.5035 42.1396 88.0381C40.5394 90.904 36.438 90.8706 34.9645 87.9738C33.8345 85.7562 34.7651 83.2447 37.4728 81.2097C40.1741 79.1786 44.5489 77.7109 49.8897 77.0427L50.7309 76.9398V73.2699V69.6H55.0568H59.3821V73.2699V76.9398L60.2233 77.0427C67.7965 77.9926 73.2557 80.5428 75.1627 84.021C75.5743 84.778 75.645 85.0616 75.6386 86.099C75.6353 87.0181 75.5549 87.4548 75.2848 87.9565C74.8732 88.7341 73.965 89.5695 73.1682 89.904C72.3874 90.2319 70.829 90.2127 69.9909 89.8397C69.1548 89.4988 67.9361 88.1784 67.7142 87.3789C67.309 85.9087 67.6498 84.2024 68.5985 83.3393C68.8172 83.1335 68.9908 82.9212 68.9908 82.8569C68.9908 82.7926 68.6114 82.5803 68.1496 82.3809C65.2959 81.1505 61.8305 80.3935 57.6564 80.0887L56.8152 80.0244V82.8446V85.6642L57.4828 86.1466C58.7209 87.0457 59.3042 88.3404 59.1498 89.8467C58.899 92.2971 56.509 94.0163 54.1525 93.4426L54.1757 93.4792ZM33.8962 67.0325C32.3423 66.7688 30.9686 65.7095 30.2881 64.247C29.9086 63.4379 29.9086 63.3768 29.9086 58.0225L29.9073 52.6154H32.2118H34.5162L34.7092 53.9371C35.0372 56.1792 35.6578 57.7112 36.7017 58.8373C37.595 59.8008 37.8735 59.8696 39.3914 59.503C41.2469 59.0528 45.713 58.4289 48.5718 58.2141C49.8935 58.1176 52.8135 58.034 55.0607 58.034C57.3072 58.034 60.2272 58.1176 61.5489 58.2141C64.4077 58.4264 68.8745 59.056 70.7287 59.503C72.0388 59.8182 72.0658 59.8182 72.6511 59.503C74.1786 58.7171 75.1794 56.6956 75.492 53.7615L75.6013 52.7601H77.9964H80.3922L80.3279 58.0874C80.2636 63.2559 80.2636 63.4379 79.9099 64.2154C79.1979 65.7616 77.9077 66.7315 76.193 67.0087C74.9685 67.2081 35.0514 67.2145 33.8853 67.0087L33.8962 67.0325ZM38.6472 56.7413C38.4993 56.0094 35.8283 26.2278 35.8302 25.294C35.8341 23.0198 36.775 20.88 38.5418 19.1286C39.9439 17.7381 40.9169 17.1696 42.6541 16.7258C43.8311 16.4235 44.4543 16.4106 55.042 16.4106C64.4122 16.4132 66.3546 16.475 67.2158 16.655C70.2676 17.3741 72.9592 19.9056 73.8879 22.9297C74.396 24.5904 74.3446 25.4464 72.7797 41.4559C71.9443 49.9894 71.2374 56.9947 71.2085 57.0236C71.2085 57.0236 70.4721 56.9336 69.636 56.7664C66.1185 56.0447 59.8207 55.5019 54.9616 55.5013C50.2241 55.5006 43.9482 56.0544 40.4153 56.7792C39.549 56.9593 38.8138 57.1008 38.781 57.1008C38.7167 57.1008 38.6923 56.9407 38.6472 56.7413ZM26.6195 50.5058C25.9828 50.1521 25.5718 49.6607 25.4071 49.051C25.182 48.2226 25.4071 47.5492 26.1815 46.8115C29.131 43.9668 34.075 45.3799 35.1131 49.3649C35.2417 49.8665 35.351 50.3727 35.351 50.4866C35.351 50.7631 27.1135 50.776 26.6195 50.4866L26.6195 50.5058ZM74.7678 50.255C74.7678 49.536 75.308 48.2111 75.8946 47.4367C77.0979 45.8545 79.1567 45.0377 81.0572 45.3889C83.8485 45.9034 85.4307 47.9654 84.3708 49.7038C83.8112 50.6242 83.4125 50.6956 78.8525 50.6956H74.762L74.7678 50.255Z" fill="#00FFB2"/>
</g>
<g filter="url(#filter1_b_1753_6481)">
<path fill-rule="evenodd" clip-rule="evenodd" d="M53.4515 81.1636V80.0346L53.5455 81.1557L53.4515 81.1636ZM52.5305 80.1118L53.4515 80.0346H52.5243L52.4398 78.9905L54.5765 78.8113V82.9063C54.5765 83.838 54.562 84.5808 54.5329 85.0992C54.5187 85.3525 54.4994 85.5843 54.4702 85.7672C54.4571 85.8493 54.4333 85.9806 54.385 86.1141C54.3631 86.1745 54.3105 86.3098 54.2029 86.4504C54.1297 86.5461 53.9427 86.755 53.6334 86.8521C53.6693 86.8252 53.6864 86.8149 53.686 86.8151C53.6854 86.8155 53.6588 86.831 53.6109 86.8488C53.5723 86.8632 53.4556 86.9037 53.2907 86.9037C53.4182 86.9037 53.5324 86.8839 53.6334 86.8521C53.6218 86.8608 53.6082 86.8713 53.5926 86.8838C53.4686 86.9822 53.3002 87.1371 53.1169 87.3263C52.9361 87.5131 52.7593 87.7142 52.6164 87.8965C52.4613 88.0945 52.3896 88.2154 52.3733 88.2509C52.2711 88.4739 52.1817 88.9189 52.1817 89.4633C52.1817 90.0073 52.2713 90.4557 52.3747 90.6827C52.6811 91.3566 53.3465 91.9697 54.0674 92.264L51.7108 91.6903L51.9697 92.099C52.5355 92.7493 53.3111 93.2539 54.1177 93.4646C54.1269 93.467 54.1362 93.4694 54.1454 93.4717C54.1555 93.4743 54.1656 93.4768 54.1757 93.4792L54.1525 93.4426C54.1626 93.4451 54.1727 93.4475 54.1828 93.4499C54.1924 93.4521 54.202 93.4543 54.2116 93.4565C54.6578 93.5579 55.1045 93.5775 55.5371 93.5261C57.3703 93.3081 58.9486 91.8127 59.1498 89.8467C59.3042 88.3404 58.7209 87.0457 57.4828 86.1466L56.8152 85.6642V80.0244L57.6564 80.0887C57.7514 80.0956 57.846 80.1028 57.9402 80.1102C61.9224 80.4231 65.2514 81.1543 68.0137 82.3229C68.0591 82.3421 68.1044 82.3614 68.1496 82.3809C68.6114 82.5803 68.9908 82.7926 68.9908 82.8569C68.9908 82.9212 68.8172 83.1335 68.5985 83.3393C67.6498 84.2024 67.309 85.9087 67.7142 87.3789C67.9361 88.1784 69.1548 89.4988 69.9909 89.8397C70.829 90.2127 72.3874 90.2319 73.1682 89.904C73.965 89.5695 74.8732 88.7341 75.2848 87.9565C75.5549 87.4548 75.6353 87.0181 75.6386 86.099C75.645 85.0616 75.5743 84.778 75.1627 84.021C73.2557 80.5428 67.7965 77.9926 60.2233 77.0427L59.3821 76.9398V69.6H50.7309V76.9398L49.8897 77.0427C44.5489 77.7109 40.1741 79.1786 37.4728 81.2097C34.7651 83.2447 33.8345 85.7562 34.9645 87.9738C36.438 90.8706 40.5394 90.904 42.1396 88.0381C42.9008 86.6756 42.7788 84.9678 41.8748 83.676C41.7607 83.5128 41.634 83.3563 41.4952 83.208L41.1028 82.7899L42.0303 82.3719C42.0825 82.3485 42.1351 82.3252 42.1879 82.3022C44.7393 81.1887 47.986 80.4927 52.3265 80.1286C52.3942 80.1229 52.4622 80.1173 52.5305 80.1118ZM52.5243 80.0346L52.4365 78.9907C47.8422 79.3624 44.349 80.0997 41.5701 81.3453L39.2048 82.4115L40.6739 83.9769M50.0294 78.159C50.0288 78.159 50.0283 78.1591 50.0278 78.1592C44.7781 78.8162 40.6263 80.2461 38.1489 82.1089C36.9143 83.0368 36.169 84.0116 35.8344 84.9144C35.5095 85.7906 35.5501 86.6451 35.9669 87.4631C37.0169 89.5273 39.9793 89.5995 41.1573 87.4897C41.7657 86.4007 41.5923 84.9586 40.6748 83.9778M50.0294 78.159L51.8559 77.9355V70.725H58.2571V77.9355L60.0833 78.1589C60.0838 78.159 60.0843 78.1591 60.0848 78.1591C63.7883 78.6238 66.9256 79.4744 69.3417 80.603C71.7709 81.7377 73.3788 83.1088 74.1751 84.5599C74.3694 84.9172 74.4287 85.0676 74.4614 85.2085C74.4976 85.365 74.5168 85.5806 74.5136 86.0921L74.5136 86.0951C74.5106 86.9364 74.4371 87.1578 74.2942 87.4231L74.2905 87.4301C73.9982 87.9823 73.2853 88.6347 72.7328 88.8666C72.5465 88.9449 72.1383 89.019 71.6209 89.0099C71.1087 89.0008 70.6768 88.9135 70.4484 88.8119L70.4321 88.8046L70.4156 88.7979C70.2222 88.7191 69.8422 88.4437 69.4483 88.0176C69.046 87.5825 68.836 87.214 68.7982 87.0782C68.471 85.8884 68.8086 84.6691 69.3556 84.1714L69.3626 84.165L69.3695 84.1585C69.5073 84.0289 69.6408 83.8882 69.7488 83.7556C69.8011 83.6914 69.8637 83.6093 69.9197 83.5179C69.9473 83.4728 69.9859 83.4052 70.0207 83.322C70.0472 83.2587 70.1158 83.0857 70.1158 82.8569C70.1158 82.5861 70.0205 82.3866 69.9667 82.291C69.9078 82.1865 69.8441 82.111 69.8042 82.0674C69.7247 81.9803 69.645 81.9176 69.5988 81.883C69.4995 81.8086 69.3895 81.7423 69.2959 81.6896C69.0998 81.579 68.8521 81.4588 68.5956 81.3481C65.5947 80.0542 61.998 79.2779 57.7399 78.9668C57.7394 78.9667 57.7389 78.9667 57.7384 78.9667L55.6902 78.8101V86.2393L56.8217 87.0569C56.8221 87.0571 56.8224 87.0574 56.8228 87.0577C57.7399 87.7242 58.1436 88.6302 58.0307 89.732C57.8473 91.5235 56.093 92.7572 54.4186 92.3495L54.0674 92.264M30.2881 64.247C30.7422 65.2231 31.5052 66.0196 32.4245 66.5198C32.8691 66.7618 33.3502 66.9344 33.8507 67.0245C33.861 67.0264 33.8713 67.0282 33.8816 67.03C33.8864 67.0308 33.8913 67.0317 33.8962 67.0325L33.8853 67.0087C33.8896 67.0095 33.8945 67.0102 33.8999 67.011C33.9096 67.0123 33.9211 67.0137 33.9343 67.0151C34.096 67.0316 34.5143 67.0468 35.1462 67.0605C42.1172 67.2117 75.0819 67.1896 76.193 67.0087C77.9077 66.7315 79.1979 65.7616 79.9099 64.2154C80.2613 63.443 80.2635 63.2583 80.3267 58.1882L80.3922 52.7601H75.6013L75.492 53.7615C75.1794 56.6956 74.1786 58.7171 72.6511 59.503C72.0658 59.8182 72.0388 59.8182 70.7287 59.503C68.8745 59.056 64.4077 58.4264 61.5489 58.2141C60.2272 58.1176 57.3072 58.034 55.0607 58.034C52.8135 58.034 49.8935 58.1176 48.5718 58.2141C45.713 58.4289 41.2469 59.0528 39.3914 59.503C37.8735 59.8696 37.595 59.8008 36.7017 58.8373C35.6578 57.7112 35.0372 56.1792 34.7092 53.9371L34.5162 52.6154H29.9073L29.9086 58.0225C29.9086 63.3768 29.9086 63.4379 30.2881 64.247ZM31.0326 53.7404L31.0336 58.0222C31.0336 60.723 31.0342 62.0294 31.079 62.7714C31.1008 63.1317 31.1303 63.2995 31.1568 63.4002C31.1814 63.494 31.2118 63.567 31.3066 63.7693L31.3081 63.7724C31.776 64.778 32.6669 65.5322 33.6839 65.8308L34.0809 65.9008C34.0703 65.8989 34.0818 65.8996 34.1229 65.9017C34.1884 65.9052 34.3289 65.9126 34.5745 65.9204C34.9226 65.9313 35.405 65.9416 36.0056 65.9511C37.2058 65.9702 38.8614 65.986 40.8229 65.9986C44.7449 66.0238 49.8795 66.036 55.0171 66.0356C60.1548 66.0352 65.2931 66.0222 69.2225 65.9968C71.1877 65.9841 72.848 65.9683 74.0539 65.9495C74.6573 65.9401 75.143 65.93 75.4947 65.9193C75.7768 65.9107 75.9267 65.9025 75.9846 65.8994C76.008 65.8981 76.0164 65.8976 76.0124 65.8983C77.3653 65.6796 78.3353 64.9436 78.887 63.7471C78.9667 63.5718 78.9976 63.4915 79.0227 63.3891C79.051 63.2735 79.0806 63.0901 79.1049 62.7236C79.1544 61.9756 79.1705 60.6849 79.2028 58.0919L79.203 58.0738L79.2535 53.8851H76.6101C76.2862 56.9187 75.2183 59.4407 73.1762 60.498C73.1662 60.5034 73.1562 60.5088 73.1459 60.5144C72.8758 60.6605 72.4991 60.8644 71.9617 60.8644C71.5746 60.8644 71.1101 60.7523 70.5722 60.6225C70.537 60.614 70.5014 60.6054 70.4656 60.5968C68.6915 60.1691 64.2904 59.5458 61.4665 59.3361C60.183 59.2424 57.2937 59.159 55.0607 59.159C52.8278 59.159 49.9399 59.2424 48.6556 59.336C45.8291 59.5484 41.43 60.166 39.6566 60.5963L39.6555 60.5966C38.9465 60.7678 38.2245 60.9299 37.5421 60.761C36.8065 60.579 36.3085 60.0679 35.8767 59.6023C34.6199 58.2464 33.9419 56.4641 33.596 54.1L33.5435 53.7404H31.0326ZM75.8871 50.6956H74.762L74.7678 50.255C74.7678 50.0628 74.8064 49.8273 74.8741 49.5706H76.0492C75.937 49.9003 75.8928 50.1423 75.8928 50.255V50.2698L75.8871 50.6956ZM76.7904 48.1172C77.7462 46.861 79.385 46.2239 80.8528 46.4951C82.0409 46.7142 82.8603 47.2442 83.2659 47.7725C83.643 48.2637 83.6594 48.7096 83.4102 49.1182L83.4095 49.1194C83.2916 49.3133 83.2555 49.3347 83.2524 49.337C83.2518 49.3374 83.1885 49.388 82.9128 49.4376C82.2969 49.5482 81.1821 49.5706 78.8525 49.5706H76.0492C76.0794 49.482 76.1145 49.387 76.1549 49.2865C76.3357 48.8372 76.5718 48.4061 76.7904 48.1172ZM75.8946 47.4367L76.7904 48.1172C76.7903 48.1174 76.7906 48.117 76.7904 48.1172C76.7907 48.1168 76.791 48.1164 76.7913 48.116L75.8946 47.4367ZM26.6277 50.491C26.6379 50.496 26.6503 50.501 26.6651 50.5059C26.8162 50.5556 27.2072 50.5955 27.7445 50.6258C30.1192 50.7599 35.351 50.707 35.351 50.4866C35.351 50.3727 35.2417 49.8665 35.1131 49.3649C34.075 45.3799 29.131 43.9668 26.1815 46.8115C25.4071 47.5492 25.182 48.2226 25.4071 49.051C25.4311 49.1398 25.4603 49.2261 25.4947 49.3098C25.692 49.7906 26.0596 50.1866 26.5852 50.4865C26.5938 50.4914 26.6024 50.4963 26.611 50.5011C26.6138 50.5027 26.6167 50.5043 26.6195 50.5058L26.6195 50.4866C26.622 50.488 26.6248 50.4895 26.6277 50.491ZM27.0578 49.4395L26.9002 49.3471C26.6658 49.1612 26.5481 48.9607 26.4932 48.7577L26.4928 48.756C26.4288 48.5205 26.4437 48.3787 26.4836 48.2624C26.5304 48.1262 26.6488 47.9201 26.9575 47.6261L26.9625 47.6213C29.2524 45.4128 33.0942 46.4551 33.9892 49.5208C33.2336 49.5549 32.2136 49.573 31.1697 49.5738C30.119 49.5746 29.0599 49.5578 28.2392 49.5235C27.8268 49.5063 27.4885 49.4852 27.2466 49.4614C27.1662 49.4535 27.1039 49.446 27.0578 49.4395ZM34.2299 50.5669C34.2305 50.5711 34.2302 50.5702 34.2297 50.5653ZM35.8302 25.294C35.8283 26.2278 38.4993 56.0094 38.6472 56.7413C38.6535 56.769 38.6594 56.7959 38.665 56.8218C38.6998 56.9821 38.7256 57.1008 38.781 57.1008C38.8138 57.1008 39.549 56.9593 40.4153 56.7792C43.9482 56.0544 50.2241 55.5006 54.9616 55.5013C59.8207 55.5019 66.1185 56.0447 69.636 56.7664C70.4721 56.9336 71.2085 57.0236 71.2085 57.0236C71.2128 57.0193 71.2323 56.8589 71.2651 56.5608C71.2842 56.3877 71.3077 56.1681 71.3354 55.9057C71.5788 53.5976 72.1418 47.9723 72.7797 41.4559C74.3445 25.4464 74.396 24.5904 73.8879 22.9297C72.9592 19.9056 70.2676 17.3741 67.2158 16.655C66.3546 16.475 64.4122 16.4132 55.042 16.4106C44.4543 16.4106 43.8311 16.4235 42.6541 16.7258C40.9169 17.1696 39.9439 17.7381 38.5418 19.1286C36.775 20.88 35.8341 23.0198 35.8302 25.294ZM55.042 17.5356C59.7283 17.5369 62.5447 17.553 64.2954 17.591C66.0498 17.6291 66.6559 17.6891 66.9724 17.7535C69.6246 18.3845 72.0006 20.6178 72.8121 23.2589C73.0098 23.9047 73.1296 24.3809 72.9882 26.7448C72.8448 29.1406 72.4437 33.3292 71.6601 41.3463C71.2424 45.6123 70.857 49.4958 70.5724 52.316C70.43 53.7263 70.313 54.8696 70.2299 55.6615C70.2274 55.6856 70.2249 55.7093 70.2224 55.7327C70.1049 55.7115 69.983 55.6885 69.859 55.6637C66.2458 54.9229 59.8706 54.3769 54.9618 54.3763C50.1698 54.3756 43.815 54.9333 40.1892 55.6772L40.1863 55.6778C40.007 55.7151 39.8334 55.7507 39.6708 55.7836C39.6509 55.5893 39.6284 55.3634 39.6032 55.108C39.5163 54.2247 39.4001 52.9999 39.2645 51.5458C38.9935 48.638 38.646 44.8189 38.303 40.9929C37.9601 37.1669 37.6219 33.3352 37.3696 30.4022C37.2434 28.9355 37.1389 27.695 37.066 26.7927C37.0295 26.3413 37.0011 25.9768 36.982 25.7119C36.9724 25.5791 36.9653 25.4742 36.9607 25.3972C36.9574 25.3413 36.956 25.3115 36.9555 25.2997C36.9552 25.2929 36.9552 25.2921 36.9552 25.2959C36.9552 25.2957 36.9552 25.296 36.9552 25.2959C36.9585 23.3506 37.7577 21.4899 39.3338 19.9276C39.9985 19.2684 40.5166 18.8492 41.0398 18.5435C41.5582 18.2406 42.13 18.0208 42.9326 17.8158L42.934 17.8154C43.406 17.6942 43.7613 17.6195 45.3474 17.5795C46.9557 17.539 49.74 17.5356 55.042 17.5356Z" fill="url(#paint0_linear_1753_6481)"/>
<path fill-rule="evenodd" clip-rule="evenodd" d="M53.4515 81.1636V80.0346L53.5455 81.1557L53.4515 81.1636ZM52.5305 80.1118L53.4515 80.0346H52.5243L52.4398 78.9905L54.5765 78.8113V82.9063C54.5765 83.838 54.562 84.5808 54.5329 85.0992C54.5187 85.3525 54.4994 85.5843 54.4702 85.7672C54.4571 85.8493 54.4333 85.9806 54.385 86.1141C54.3631 86.1745 54.3105 86.3098 54.2029 86.4504C54.1297 86.5461 53.9427 86.755 53.6334 86.8521C53.6693 86.8252 53.6864 86.8149 53.686 86.8151C53.6854 86.8155 53.6588 86.831 53.6109 86.8488C53.5723 86.8632 53.4556 86.9037 53.2907 86.9037C53.4182 86.9037 53.5324 86.8839 53.6334 86.8521C53.6218 86.8608 53.6082 86.8713 53.5926 86.8838C53.4686 86.9822 53.3002 87.1371 53.1169 87.3263C52.9361 87.5131 52.7593 87.7142 52.6164 87.8965C52.4613 88.0945 52.3896 88.2154 52.3733 88.2509C52.2711 88.4739 52.1817 88.9189 52.1817 89.4633C52.1817 90.0073 52.2713 90.4557 52.3747 90.6827C52.6811 91.3566 53.3465 91.9697 54.0674 92.264L51.7108 91.6903L51.9697 92.099C52.5355 92.7493 53.3111 93.2539 54.1177 93.4646C54.1269 93.467 54.1362 93.4694 54.1454 93.4717C54.1555 93.4743 54.1656 93.4768 54.1757 93.4792L54.1525 93.4426C54.1626 93.4451 54.1727 93.4475 54.1828 93.4499C54.1924 93.4521 54.202 93.4543 54.2116 93.4565C54.6578 93.5579 55.1045 93.5775 55.5371 93.5261C57.3703 93.3081 58.9486 91.8127 59.1498 89.8467C59.3042 88.3404 58.7209 87.0457 57.4828 86.1466L56.8152 85.6642V80.0244L57.6564 80.0887C57.7514 80.0956 57.846 80.1028 57.9402 80.1102C61.9224 80.4231 65.2514 81.1543 68.0137 82.3229C68.0591 82.3421 68.1044 82.3614 68.1496 82.3809C68.6114 82.5803 68.9908 82.7926 68.9908 82.8569C68.9908 82.9212 68.8172 83.1335 68.5985 83.3393C67.6498 84.2024 67.309 85.9087 67.7142 87.3789C67.9361 88.1784 69.1548 89.4988 69.9909 89.8397C70.829 90.2127 72.3874 90.2319 73.1682 89.904C73.965 89.5695 74.8732 88.7341 75.2848 87.9565C75.5549 87.4548 75.6353 87.0181 75.6386 86.099C75.645 85.0616 75.5743 84.778 75.1627 84.021C73.2557 80.5428 67.7965 77.9926 60.2233 77.0427L59.3821 76.9398V69.6H50.7309V76.9398L49.8897 77.0427C44.5489 77.7109 40.1741 79.1786 37.4728 81.2097C34.7651 83.2447 33.8345 85.7562 34.9645 87.9738C36.438 90.8706 40.5394 90.904 42.1396 88.0381C42.9008 86.6756 42.7788 84.9678 41.8748 83.676C41.7607 83.5128 41.634 83.3563 41.4952 83.208L41.1028 82.7899L42.0303 82.3719C42.0825 82.3485 42.1351 82.3252 42.1879 82.3022C44.7393 81.1887 47.986 80.4927 52.3265 80.1286C52.3942 80.1229 52.4622 80.1173 52.5305 80.1118ZM52.5243 80.0346L52.4365 78.9907C47.8422 79.3624 44.349 80.0997 41.5701 81.3453L39.2048 82.4115L40.6739 83.9769M50.0294 78.159C50.0288 78.159 50.0283 78.1591 50.0278 78.1592C44.7781 78.8162 40.6263 80.2461 38.1489 82.1089C36.9143 83.0368 36.169 84.0116 35.8344 84.9144C35.5095 85.7906 35.5501 86.6451 35.9669 87.4631C37.0169 89.5273 39.9793 89.5995 41.1573 87.4897C41.7657 86.4007 41.5923 84.9586 40.6748 83.9778M50.0294 78.159L51.8559 77.9355V70.725H58.2571V77.9355L60.0833 78.1589C60.0838 78.159 60.0843 78.1591 60.0848 78.1591C63.7883 78.6238 66.9256 79.4744 69.3417 80.603C71.7709 81.7377 73.3788 83.1088 74.1751 84.5599C74.3694 84.9172 74.4287 85.0676 74.4614 85.2085C74.4976 85.365 74.5168 85.5806 74.5136 86.0921L74.5136 86.0951C74.5106 86.9364 74.4371 87.1578 74.2942 87.4231L74.2905 87.4301C73.9982 87.9823 73.2853 88.6347 72.7328 88.8666C72.5465 88.9449 72.1383 89.019 71.6209 89.0099C71.1087 89.0008 70.6768 88.9135 70.4484 88.8119L70.4321 88.8046L70.4156 88.7979C70.2222 88.7191 69.8422 88.4437 69.4483 88.0176C69.046 87.5825 68.836 87.214 68.7982 87.0782C68.471 85.8884 68.8086 84.6691 69.3556 84.1714L69.3626 84.165L69.3695 84.1585C69.5073 84.0289 69.6408 83.8882 69.7488 83.7556C69.8011 83.6914 69.8637 83.6093 69.9197 83.5179C69.9473 83.4728 69.9859 83.4052 70.0207 83.322C70.0472 83.2587 70.1158 83.0857 70.1158 82.8569C70.1158 82.5861 70.0205 82.3866 69.9667 82.291C69.9078 82.1865 69.8441 82.111 69.8042 82.0674C69.7247 81.9803 69.645 81.9176 69.5988 81.883C69.4995 81.8086 69.3895 81.7423 69.2959 81.6896C69.0998 81.579 68.8521 81.4588 68.5956 81.3481C65.5947 80.0542 61.998 79.2779 57.7399 78.9668C57.7394 78.9667 57.7389 78.9667 57.7384 78.9667L55.6902 78.8101V86.2393L56.8217 87.0569C56.8221 87.0571 56.8224 87.0574 56.8228 87.0577C57.7399 87.7242 58.1436 88.6302 58.0307 89.732C57.8473 91.5235 56.093 92.7572 54.4186 92.3495L54.0674 92.264M30.2881 64.247C30.7422 65.2231 31.5052 66.0196 32.4245 66.5198C32.8691 66.7618 33.3502 66.9344 33.8507 67.0245C33.861 67.0264 33.8713 67.0282 33.8816 67.03C33.8864 67.0308 33.8913 67.0317 33.8962 67.0325L33.8853 67.0087C33.8896 67.0095 33.8945 67.0102 33.8999 67.011C33.9096 67.0123 33.9211 67.0137 33.9343 67.0151C34.096 67.0316 34.5143 67.0468 35.1462 67.0605C42.1172 67.2117 75.0819 67.1896 76.193 67.0087C77.9077 66.7315 79.1979 65.7616 79.9099 64.2154C80.2613 63.443 80.2635 63.2583 80.3267 58.1882L80.3922 52.7601H75.6013L75.492 53.7615C75.1794 56.6956 74.1786 58.7171 72.6511 59.503C72.0658 59.8182 72.0388 59.8182 70.7287 59.503C68.8745 59.056 64.4077 58.4264 61.5489 58.2141C60.2272 58.1176 57.3072 58.034 55.0607 58.034C52.8135 58.034 49.8935 58.1176 48.5718 58.2141C45.713 58.4289 41.2469 59.0528 39.3914 59.503C37.8735 59.8696 37.595 59.8008 36.7017 58.8373C35.6578 57.7112 35.0372 56.1792 34.7092 53.9371L34.5162 52.6154H29.9073L29.9086 58.0225C29.9086 63.3768 29.9086 63.4379 30.2881 64.247ZM31.0326 53.7404L31.0336 58.0222C31.0336 60.723 31.0342 62.0294 31.079 62.7714C31.1008 63.1317 31.1303 63.2995 31.1568 63.4002C31.1814 63.494 31.2118 63.567 31.3066 63.7693L31.3081 63.7724C31.776 64.778 32.6669 65.5322 33.6839 65.8308L34.0809 65.9008C34.0703 65.8989 34.0818 65.8996 34.1229 65.9017C34.1884 65.9052 34.3289 65.9126 34.5745 65.9204C34.9226 65.9313 35.405 65.9416 36.0056 65.9511C37.2058 65.9702 38.8614 65.986 40.8229 65.9986C44.7449 66.0238 49.8795 66.036 55.0171 66.0356C60.1548 66.0352 65.2931 66.0222 69.2225 65.9968C71.1877 65.9841 72.848 65.9683 74.0539 65.9495C74.6573 65.9401 75.143 65.93 75.4947 65.9193C75.7768 65.9107 75.9267 65.9025 75.9846 65.8994C76.008 65.8981 76.0164 65.8976 76.0124 65.8983C77.3653 65.6796 78.3353 64.9436 78.887 63.7471C78.9667 63.5718 78.9976 63.4915 79.0227 63.3891C79.051 63.2735 79.0806 63.0901 79.1049 62.7236C79.1544 61.9756 79.1705 60.6849 79.2028 58.0919L79.203 58.0738L79.2535 53.8851H76.6101C76.2862 56.9187 75.2183 59.4407 73.1762 60.498C73.1662 60.5034 73.1562 60.5088 73.1459 60.5144C72.8758 60.6605 72.4991 60.8644 71.9617 60.8644C71.5746 60.8644 71.1101 60.7523 70.5722 60.6225C70.537 60.614 70.5014 60.6054 70.4656 60.5968C68.6915 60.1691 64.2904 59.5458 61.4665 59.3361C60.183 59.2424 57.2937 59.159 55.0607 59.159C52.8278 59.159 49.9399 59.2424 48.6556 59.336C45.8291 59.5484 41.43 60.166 39.6566 60.5963L39.6555 60.5966C38.9465 60.7678 38.2245 60.9299 37.5421 60.761C36.8065 60.579 36.3085 60.0679 35.8767 59.6023C34.6199 58.2464 33.9419 56.4641 33.596 54.1L33.5435 53.7404H31.0326ZM75.8871 50.6956H74.762L74.7678 50.255C74.7678 50.0628 74.8064 49.8273 74.8741 49.5706H76.0492C75.937 49.9003 75.8928 50.1423 75.8928 50.255V50.2698L75.8871 50.6956ZM76.7904 48.1172C77.7462 46.861 79.385 46.2239 80.8528 46.4951C82.0409 46.7142 82.8603 47.2442 83.2659 47.7725C83.643 48.2637 83.6594 48.7096 83.4102 49.1182L83.4095 49.1194C83.2916 49.3133 83.2555 49.3347 83.2524 49.337C83.2518 49.3374 83.1885 49.388 82.9128 49.4376C82.2969 49.5482 81.1821 49.5706 78.8525 49.5706H76.0492C76.0794 49.482 76.1145 49.387 76.1549 49.2865C76.3357 48.8372 76.5718 48.4061 76.7904 48.1172ZM75.8946 47.4367L76.7904 48.1172C76.7903 48.1174 76.7906 48.117 76.7904 48.1172C76.7907 48.1168 76.791 48.1164 76.7913 48.116L75.8946 47.4367ZM26.6277 50.491C26.6379 50.496 26.6503 50.501 26.6651 50.5059C26.8162 50.5556 27.2072 50.5955 27.7445 50.6258C30.1192 50.7599 35.351 50.707 35.351 50.4866C35.351 50.3727 35.2417 49.8665 35.1131 49.3649C34.075 45.3799 29.131 43.9668 26.1815 46.8115C25.4071 47.5492 25.182 48.2226 25.4071 49.051C25.4311 49.1398 25.4603 49.2261 25.4947 49.3098C25.692 49.7906 26.0596 50.1866 26.5852 50.4865C26.5938 50.4914 26.6024 50.4963 26.611 50.5011C26.6138 50.5027 26.6167 50.5043 26.6195 50.5058L26.6195 50.4866C26.622 50.488 26.6248 50.4895 26.6277 50.491ZM27.0578 49.4395L26.9002 49.3471C26.6658 49.1612 26.5481 48.9607 26.4932 48.7577L26.4928 48.756C26.4288 48.5205 26.4437 48.3787 26.4836 48.2624C26.5304 48.1262 26.6488 47.9201 26.9575 47.6261L26.9625 47.6213C29.2524 45.4128 33.0942 46.4551 33.9892 49.5208C33.2336 49.5549 32.2136 49.573 31.1697 49.5738C30.119 49.5746 29.0599 49.5578 28.2392 49.5235C27.8268 49.5063 27.4885 49.4852 27.2466 49.4614C27.1662 49.4535 27.1039 49.446 27.0578 49.4395ZM34.2299 50.5669C34.2305 50.5711 34.2302 50.5702 34.2297 50.5653ZM35.8302 25.294C35.8283 26.2278 38.4993 56.0094 38.6472 56.7413C38.6535 56.769 38.6594 56.7959 38.665 56.8218C38.6998 56.9821 38.7256 57.1008 38.781 57.1008C38.8138 57.1008 39.549 56.9593 40.4153 56.7792C43.9482 56.0544 50.2241 55.5006 54.9616 55.5013C59.8207 55.5019 66.1185 56.0447 69.636 56.7664C70.4721 56.9336 71.2085 57.0236 71.2085 57.0236C71.2128 57.0193 71.2323 56.8589 71.2651 56.5608C71.2842 56.3877 71.3077 56.1681 71.3354 55.9057C71.5788 53.5976 72.1418 47.9723 72.7797 41.4559C74.3445 25.4464 74.396 24.5904 73.8879 22.9297C72.9592 19.9056 70.2676 17.3741 67.2158 16.655C66.3546 16.475 64.4122 16.4132 55.042 16.4106C44.4543 16.4106 43.8311 16.4235 42.6541 16.7258C40.9169 17.1696 39.9439 17.7381 38.5418 19.1286C36.775 20.88 35.8341 23.0198 35.8302 25.294ZM55.042 17.5356C59.7283 17.5369 62.5447 17.553 64.2954 17.591C66.0498 17.6291 66.6559 17.6891 66.9724 17.7535C69.6246 18.3845 72.0006 20.6178 72.8121 23.2589C73.0098 23.9047 73.1296 24.3809 72.9882 26.7448C72.8448 29.1406 72.4437 33.3292 71.6601 41.3463C71.2424 45.6123 70.857 49.4958 70.5724 52.316C70.43 53.7263 70.313 54.8696 70.2299 55.6615C70.2274 55.6856 70.2249 55.7093 70.2224 55.7327C70.1049 55.7115 69.983 55.6885 69.859 55.6637C66.2458 54.9229 59.8706 54.3769 54.9618 54.3763C50.1698 54.3756 43.815 54.9333 40.1892 55.6772L40.1863 55.6778C40.007 55.7151 39.8334 55.7507 39.6708 55.7836C39.6509 55.5893 39.6284 55.3634 39.6032 55.108C39.5163 54.2247 39.4001 52.9999 39.2645 51.5458C38.9935 48.638 38.646 44.8189 38.303 40.9929C37.9601 37.1669 37.6219 33.3352 37.3696 30.4022C37.2434 28.9355 37.1389 27.695 37.066 26.7927C37.0295 26.3413 37.0011 25.9768 36.982 25.7119C36.9724 25.5791 36.9653 25.4742 36.9607 25.3972C36.9574 25.3413 36.956 25.3115 36.9555 25.2997C36.9552 25.2929 36.9552 25.2921 36.9552 25.2959C36.9552 25.2957 36.9552 25.296 36.9552 25.2959C36.9585 23.3506 37.7577 21.4899 39.3338 19.9276C39.9985 19.2684 40.5166 18.8492 41.0398 18.5435C41.5582 18.2406 42.13 18.0208 42.9326 17.8158L42.934 17.8154C43.406 17.6942 43.7613 17.6195 45.3474 17.5795C46.9557 17.539 49.74 17.5356 55.042 17.5356Z" fill="url(#paint1_radial_1753_6481)"/>
</g>
<defs>
<filter id="filter0_b_1753_6481" x="-4.67578" y="-13.5894" width="119.379" height="137.143" filterUnits="userSpaceOnUse" color-interpolation-filters="sRGB">
<feFlood flood-opacity="0" result="BackgroundImageFix"/>
<feGaussianBlur in="BackgroundImageFix" stdDeviation="15"/>
<feComposite in2="SourceAlpha" operator="in" result="effect1_backgroundBlur_1753_6481"/>
<feBlend mode="normal" in="SourceGraphic" in2="effect1_backgroundBlur_1753_6481" result="shape"/>
</filter>
<filter id="filter1_b_1753_6481" x="-4.67578" y="-13.5894" width="118.252" height="137.143" filterUnits="userSpaceOnUse" color-interpolation-filters="sRGB">
<feFlood flood-opacity="0" result="BackgroundImageFix"/>
<feGaussianBlur in="BackgroundImageFix" stdDeviation="15"/>
<feComposite in2="SourceAlpha" operator="in" result="effect1_backgroundBlur_1753_6481"/>
<feBlend mode="normal" in="SourceGraphic" in2="effect1_backgroundBlur_1753_6481" result="shape"/>
</filter>
<linearGradient id="paint0_linear_1753_6481" x1="33.7074" y1="13.6555" x2="95.0074" y2="40.6821" gradientUnits="userSpaceOnUse">
<stop offset="0.188941" stop-color="#E7F0FF" stop-opacity="0.523483"/>
<stop offset="0.526042" stop-color="#88A4FF"/>
<stop offset="1" stop-color="#B4D2FF" stop-opacity="0.1"/>
</linearGradient>
<radialGradient id="paint1_radial_1753_6481" cx="0" cy="0" r="1" gradientUnits="userSpaceOnUse" gradientTransform="translate(34.0299 91.028) rotate(-58.534) scale(55.1806 82.1249)">
<stop stop-color="white"/>
<stop offset="1" stop-color="white" stop-opacity="0"/>
</radialGradient>
</defs>
</svg>
