<svg width="100" height="100" viewBox="0 0 100 100" fill="none" xmlns="http://www.w3.org/2000/svg">
<g clip-path="url(#clip0_1753_6484)">
<path d="M66.1559 69.5122C66.1559 86.3502 52.4657 100 35.578 100C18.6902 100 5 86.3502 5 69.5122C5 52.6743 18.6902 39.0244 35.578 39.0244C52.4657 39.0244 66.1559 52.6743 66.1559 69.5122Z" fill="#04211A" fill-opacity="0.4"/>
<path d="M65.6559 69.5122C65.6559 86.0726 52.1909 99.5 35.578 99.5C18.965 99.5 5.5 86.0726 5.5 69.5122C5.5 52.9518 18.965 39.5244 35.578 39.5244C52.1909 39.5244 65.6559 52.9518 65.6559 69.5122Z" stroke="#66FFD1" stroke-opacity="0.2"/>
<g filter="url(#filter0_b_1753_6484)">
<path fill-rule="evenodd" clip-rule="evenodd" d="M14.1243 28.6665C14.1243 21.6939 19.7768 16.0415 26.7493 16.0415H77.2493C84.2221 16.0415 89.8744 21.6939 89.8744 28.6665V58.1248C89.8744 65.0976 84.2221 70.7498 77.2493 70.7498H89.8744C92.1985 70.7498 94.0827 72.634 94.0827 74.9582C94.0827 77.2824 92.1985 79.1665 89.8744 79.1665H14.1243C11.8002 79.1665 9.91602 77.2824 9.91602 74.9582C9.91602 72.634 11.8002 70.7498 14.1243 70.7498H26.7493C19.7768 70.7498 14.1243 65.0976 14.1243 58.1248V28.6665ZM26.7493 24.4582C24.4251 24.4582 22.541 26.3423 22.541 28.6665V58.1248C22.541 60.4491 24.4251 62.3332 26.7493 62.3332H77.2493C79.5737 62.3332 81.4577 60.4492 81.4577 58.1248V28.6665C81.4577 26.3423 79.5736 24.4582 77.2493 24.4582H26.7493Z" fill="#00FFB2"/>
</g>
<g filter="url(#filter1_b_1753_6484)">
<path fill-rule="evenodd" clip-rule="evenodd" d="M13.4935 28.6669C13.4935 21.3457 19.4285 15.4106 26.7497 15.4106H77.2497C84.5711 15.4106 90.506 21.3457 90.506 28.6669V58.1252C90.506 63.4244 87.3969 67.9972 82.9032 70.119H89.8747C92.5476 70.119 94.7143 72.2857 94.7143 74.9586C94.7143 77.6314 92.5476 79.7981 89.8747 79.7981H14.1247C11.4519 79.7981 9.28516 77.6314 9.28516 74.9586C9.28516 72.2857 11.4519 70.119 14.1247 70.119H21.0963C16.6027 67.9972 13.4935 63.4244 13.4935 58.1252V28.6669ZM26.7497 70.119C20.1258 70.119 14.756 64.7494 14.756 58.1252V28.6669C14.756 22.0429 20.1258 16.6731 26.7497 16.6731H77.2497C83.8739 16.6731 89.2435 22.043 89.2435 28.6669V58.1252C89.2435 64.7493 83.8738 70.119 77.2497 70.119C76.9011 70.119 76.6185 70.4016 76.6185 70.7502C76.6185 71.0989 76.9011 71.3815 77.2497 71.3815H89.8747C91.8503 71.3815 93.4518 72.983 93.4518 74.9586C93.4518 76.9341 91.8503 78.5356 89.8747 78.5356H14.1247C12.1492 78.5356 10.5477 76.9341 10.5477 74.9586C10.5477 72.983 12.1492 71.3815 14.1247 71.3815H26.7497C27.0984 71.3815 27.381 71.0989 27.381 70.7502C27.381 70.4016 27.0984 70.119 26.7497 70.119ZM26.7497 25.0898C24.7742 25.0898 23.1727 26.6913 23.1727 28.6669V58.1252C23.1727 60.1009 24.7741 61.7023 26.7497 61.7023H77.2497C79.2254 61.7023 80.8268 60.1009 80.8268 58.1252V28.6669C80.8268 26.6913 79.2254 25.0898 77.2497 25.0898H26.7497ZM21.9102 28.6669C21.9102 25.9941 24.0769 23.8273 26.7497 23.8273H77.2497C79.9227 23.8273 82.0893 25.994 82.0893 28.6669V58.1252C82.0893 60.7982 79.9227 62.9648 77.2497 62.9648H26.7497C24.0769 62.9648 21.9102 60.7981 21.9102 58.1252V28.6669Z" fill="url(#paint0_linear_1753_6484)"/>
<path fill-rule="evenodd" clip-rule="evenodd" d="M13.4935 28.6669C13.4935 21.3457 19.4285 15.4106 26.7497 15.4106H77.2497C84.5711 15.4106 90.506 21.3457 90.506 28.6669V58.1252C90.506 63.4244 87.3969 67.9972 82.9032 70.119H89.8747C92.5476 70.119 94.7143 72.2857 94.7143 74.9586C94.7143 77.6314 92.5476 79.7981 89.8747 79.7981H14.1247C11.4519 79.7981 9.28516 77.6314 9.28516 74.9586C9.28516 72.2857 11.4519 70.119 14.1247 70.119H21.0963C16.6027 67.9972 13.4935 63.4244 13.4935 58.1252V28.6669ZM26.7497 70.119C20.1258 70.119 14.756 64.7494 14.756 58.1252V28.6669C14.756 22.0429 20.1258 16.6731 26.7497 16.6731H77.2497C83.8739 16.6731 89.2435 22.043 89.2435 28.6669V58.1252C89.2435 64.7493 83.8738 70.119 77.2497 70.119C76.9011 70.119 76.6185 70.4016 76.6185 70.7502C76.6185 71.0989 76.9011 71.3815 77.2497 71.3815H89.8747C91.8503 71.3815 93.4518 72.983 93.4518 74.9586C93.4518 76.9341 91.8503 78.5356 89.8747 78.5356H14.1247C12.1492 78.5356 10.5477 76.9341 10.5477 74.9586C10.5477 72.983 12.1492 71.3815 14.1247 71.3815H26.7497C27.0984 71.3815 27.381 71.0989 27.381 70.7502C27.381 70.4016 27.0984 70.119 26.7497 70.119ZM26.7497 25.0898C24.7742 25.0898 23.1727 26.6913 23.1727 28.6669V58.1252C23.1727 60.1009 24.7741 61.7023 26.7497 61.7023H77.2497C79.2254 61.7023 80.8268 60.1009 80.8268 58.1252V28.6669C80.8268 26.6913 79.2254 25.0898 77.2497 25.0898H26.7497ZM21.9102 28.6669C21.9102 25.9941 24.0769 23.8273 26.7497 23.8273H77.2497C79.9227 23.8273 82.0893 25.994 82.0893 28.6669V58.1252C82.0893 60.7982 79.9227 62.9648 77.2497 62.9648H26.7497C24.0769 62.9648 21.9102 60.7981 21.9102 58.1252V28.6669Z" fill="url(#paint1_radial_1753_6484)"/>
</g>
</g>
<defs>
<filter id="filter0_b_1753_6484" x="-20.084" y="-13.9585" width="144.166" height="123.125" filterUnits="userSpaceOnUse" color-interpolation-filters="sRGB">
<feFlood flood-opacity="0" result="BackgroundImageFix"/>
<feGaussianBlur in="BackgroundImageFix" stdDeviation="15"/>
<feComposite in2="SourceAlpha" operator="in" result="effect1_backgroundBlur_1753_6484"/>
<feBlend mode="normal" in="SourceGraphic" in2="effect1_backgroundBlur_1753_6484" result="shape"/>
</filter>
<filter id="filter1_b_1753_6484" x="-20.7148" y="-14.5894" width="145.43" height="124.388" filterUnits="userSpaceOnUse" color-interpolation-filters="sRGB">
<feFlood flood-opacity="0" result="BackgroundImageFix"/>
<feGaussianBlur in="BackgroundImageFix" stdDeviation="15"/>
<feComposite in2="SourceAlpha" operator="in" result="effect1_backgroundBlur_1753_6484"/>
<feBlend mode="normal" in="SourceGraphic" in2="effect1_backgroundBlur_1753_6484" result="shape"/>
</filter>
<linearGradient id="paint0_linear_1753_6484" x1="21.5794" y1="13.1111" x2="88.6828" y2="65.0941" gradientUnits="userSpaceOnUse">
<stop offset="0.188941" stop-color="#E7F0FF" stop-opacity="0.523483"/>
<stop offset="0.526042" stop-color="#88A4FF"/>
<stop offset="1" stop-color="#B4D2FF" stop-opacity="0.1"/>
</linearGradient>
<radialGradient id="paint1_radial_1753_6484" cx="0" cy="0" r="1" gradientUnits="userSpaceOnUse" gradientTransform="translate(22.0522 77.6902) rotate(-42.9223) scale(57.6853 96.1597)">
<stop stop-color="white"/>
<stop offset="1" stop-color="white" stop-opacity="0"/>
</radialGradient>
<clipPath id="clip0_1753_6484">
<rect width="100" height="100" fill="white"/>
</clipPath>
</defs>
</svg>
