<svg width="100" height="100" viewBox="0 0 100 100" fill="none" xmlns="http://www.w3.org/2000/svg">
<path d="M45 26.0854C45 17.299 52.1227 10.1763 60.9091 10.1763H83.6364C92.4227 10.1763 99.5455 17.299 99.5455 26.0854V48.8126C99.5455 57.599 92.4227 64.7217 83.6364 64.7217H60.9091C52.1227 64.7217 45 57.599 45 48.8126V26.0854Z" fill="#04211A" fill-opacity="0.4"/>
<path d="M45.5 26.0854C45.5 17.5752 52.3989 10.6763 60.9091 10.6763H83.6364C92.1466 10.6763 99.0455 17.5752 99.0455 26.0854V48.8126C99.0455 57.3228 92.1466 64.2217 83.6364 64.2217H60.9091C52.3989 64.2217 45.5 57.3228 45.5 48.8126V26.0854Z" stroke="#66FFD1" stroke-opacity="0.2"/>
<g clip-path="url(#clip0_1753_6485)">
<g filter="url(#filter0_b_1753_6485)">
<path d="M78.3527 78.3564C85.8108 70.8743 89.9988 60.7408 89.9988 50.1764C89.9988 39.6121 85.8108 29.4785 78.3527 21.9964C78.3227 21.9631 78.316 21.9231 78.2827 21.8931C78.2494 21.8631 78.2127 21.8531 78.1794 21.8231C70.6974 14.366 60.5646 10.1787 50.0011 10.1787C39.4375 10.1787 29.3047 14.366 21.8227 21.8231C21.7894 21.8531 21.7461 21.8631 21.7161 21.8964C21.6861 21.9298 21.6727 21.9698 21.6427 22.0031C14.1866 29.4849 10 39.617 10 50.1798C10 60.7425 14.1866 70.8746 21.6427 78.3564C21.6727 78.3898 21.6827 78.4331 21.7161 78.4631C21.7494 78.4931 21.7894 78.5064 21.8227 78.5364C29.3047 85.9935 39.4375 90.1808 50.0011 90.1808C60.5646 90.1808 70.6974 85.9935 78.1794 78.5364C78.2127 78.5064 78.2527 78.4998 78.2827 78.4664C78.3127 78.4331 78.3327 78.3898 78.3527 78.3564ZM16.8561 53.6898C23.3093 54.3576 29.4239 56.9078 34.4394 61.0231L24.2061 71.2564C20.0942 66.2488 17.539 60.1465 16.8561 53.7031V53.6898ZM24.1894 29.0831L45.2861 50.1764L39.1627 56.2998C32.8633 50.9611 25.0572 47.7175 16.8294 47.0198C17.45 40.4444 20.0185 34.2037 24.2061 29.0964L24.1894 29.0831ZM83.126 46.6364C76.6732 45.967 70.559 43.417 65.5427 39.3031L75.776 29.0698C79.8987 34.0828 82.46 40.1952 83.1427 46.6498L83.126 46.6364ZM60.8294 34.6031C56.7141 29.5876 54.1639 23.473 53.4961 17.0198C59.9377 17.6979 66.0398 20.2472 71.0494 24.3531L60.8294 34.6031ZM56.1194 39.3431L49.9994 45.4631L28.9194 24.3831C34.0263 20.1943 40.267 17.6247 46.8427 17.0031C47.5408 25.2322 50.783 33.04 56.1194 39.3431ZM39.1527 65.7364C43.268 70.7519 45.8182 76.8665 46.4861 83.3198C40.0427 82.6368 33.9404 80.0816 28.9327 75.9698L39.1527 65.7364ZM43.8761 61.0131L49.9994 54.8898L71.0794 75.9698C65.9733 80.16 59.7322 82.7298 53.1561 83.3498C52.459 75.1208 49.2153 67.3134 43.8761 61.0131ZM54.7127 50.1764L60.8327 44.0564C67.134 49.3916 74.9392 52.6337 83.1661 53.3331C82.5445 59.9088 79.9749 66.1495 75.786 71.2564L54.7127 50.1764Z" fill="#00FFB2"/>
</g>
<g filter="url(#filter1_b_1753_6485)">
<path fill-rule="evenodd" clip-rule="evenodd" d="M77.5581 77.7371L77.6445 77.6505C84.9158 70.3558 88.9988 60.4761 88.9988 50.1764C88.9988 39.8767 84.9158 29.9971 77.6445 22.7024L77.6265 22.6843L77.6094 22.6654C77.593 22.6472 77.578 22.6293 77.5642 22.612C77.5469 22.5981 77.5289 22.583 77.5104 22.5664L77.4915 22.5494L77.4735 22.5314C70.1789 15.2611 60.3 11.1787 50.0011 11.1787C39.7022 11.1787 29.8232 15.2611 22.5287 22.5314L22.5106 22.5494L22.4917 22.5664C22.4721 22.584 22.453 22.6 22.4346 22.6145C22.4201 22.6328 22.4039 22.6522 22.386 22.6721L22.369 22.691L22.351 22.709C15.0817 30.0034 11 39.8817 11 50.1798C11 60.4779 15.0817 70.3561 22.351 77.6505L22.369 77.6686L22.386 77.6875C22.4036 77.707 22.4196 77.7262 22.4341 77.7445C22.4525 77.7591 22.4718 77.7752 22.4917 77.7931L22.5106 77.8102L22.5287 77.8281C29.8232 85.0984 39.7022 89.1808 50.0011 89.1808C60.3 89.1808 70.1789 85.0984 77.4735 77.8281L77.4915 77.8102L77.5104 77.7931C77.5203 77.7842 77.5302 77.7757 77.5399 77.7675L77.5581 77.7371ZM15.8561 52.5809L16.959 52.6951C23.6073 53.3831 29.9067 56.0103 35.0737 60.25L35.9267 60.95L24.1332 72.7435L23.4332 71.891C19.1974 66.7324 16.5652 60.4462 15.8616 53.8085L15.8561 53.7559V52.5809ZM24.1468 29.0478L24.8141 28.3022L25.6211 28.9478L25.5523 29.0317L46.7003 50.1764L39.2187 57.658L38.5162 57.0626C32.3753 51.8583 24.7657 48.6964 16.7449 48.0162L15.739 47.9309L15.8338 46.9258C16.4731 40.1523 19.119 33.7236 23.4328 28.4624L24.1468 29.0478ZM23.7075 29.7196C23.6643 29.775 23.6212 29.8305 23.5783 29.8862C19.9649 34.577 17.6721 40.1498 16.9384 46.0254C16.8971 46.3559 16.8608 46.6874 16.8294 47.0198C17.0806 47.0411 17.3314 47.0647 17.5819 47.0908C25.5325 47.9175 33.0556 51.1241 39.1627 56.2998L45.2861 50.1764L24.2046 29.0983C24.0363 29.3036 23.8706 29.5107 23.7075 29.7196ZM83.1427 46.6498C83.1417 46.6397 83.1406 46.6297 83.1395 46.6196C83.1375 46.6011 83.1356 46.5826 83.1335 46.5641C83.0993 46.2483 83.0606 45.9332 83.0174 45.6191C82.2278 39.8777 79.9473 34.4427 76.4034 29.8566C76.1985 29.5915 75.9894 29.3291 75.776 29.0698L65.5427 39.3031C65.8024 39.5161 66.0651 39.7249 66.3306 39.9295C70.9263 43.4706 76.3724 45.7423 82.1222 46.5168C82.4558 46.5617 82.7905 46.6016 83.126 46.6364L83.1427 46.6498ZM82.7289 47.5993L84.3892 48.9275L84.1372 46.5446C83.4339 39.8955 80.7953 33.5988 76.5484 28.4346L75.8483 27.5833L64.0552 39.3764L64.9086 40.0763C70.0001 44.252 76.1895 46.8636 82.7289 47.5993ZM60.7573 36.0917L60.0563 35.2374C55.8166 30.0704 53.1894 23.771 52.5014 17.1227L52.3744 15.8962L53.6008 16.0253C60.2366 16.7239 66.5226 19.35 71.6833 23.5797L72.5359 24.2785L60.7573 36.0917ZM57.4773 39.3994L49.9994 46.8773L27.4319 24.3098L28.2852 23.6099C33.546 19.2949 39.9747 16.6478 46.7486 16.0075L47.7538 15.9125L47.8391 16.9186C48.5196 24.9408 51.6803 32.5523 56.8826 38.6969L57.4773 39.3994ZM39.2254 64.2485L39.9258 65.1021C44.1655 70.2691 46.7927 76.5685 47.4807 83.2168L47.6078 84.4443L46.3807 84.3142C39.743 83.6106 33.4567 80.9784 28.2981 76.7426L27.4462 76.0431L39.2254 64.2485ZM42.5178 60.9571L49.9994 53.4755L72.5667 76.0428L71.7138 76.7428C66.4537 81.0594 60.0244 83.7067 53.2499 84.3453L52.2448 84.4401L52.1596 83.4342C51.4801 75.4123 48.3181 67.8014 43.1132 61.6596L42.5178 60.9571ZM53.2986 50.1763L60.7764 42.6985L61.4789 43.2932C67.6217 48.4943 75.2308 51.6549 83.2508 52.3367L84.2566 52.4222L84.1616 53.4272C83.5213 60.2011 80.8743 66.6298 76.5592 71.8906L75.8592 72.744L53.2986 50.1763ZM78.3527 78.3564C78.3475 78.3652 78.3422 78.3747 78.3367 78.3845C78.3215 78.4119 78.3048 78.4419 78.2827 78.4664C78.2664 78.4845 78.2472 78.4948 78.2276 78.5052C78.2112 78.5139 78.1946 78.5227 78.1794 78.5364C70.6974 85.9935 60.5646 90.1808 50.0011 90.1808C39.4375 90.1808 29.3047 85.9935 21.8227 78.5364C21.8061 78.5214 21.7877 78.5106 21.7694 78.4997C21.7511 78.4889 21.7327 78.4781 21.7161 78.4631C21.6979 78.4467 21.6866 78.4264 21.6753 78.4058C21.6658 78.3887 21.6563 78.3716 21.6427 78.3564C14.1866 70.8746 10 60.7425 10 50.1798C10 39.617 14.1866 29.4849 21.6427 22.0031C21.6577 21.9864 21.6686 21.9681 21.6794 21.9498C21.6902 21.9314 21.7011 21.9131 21.7161 21.8964C21.7324 21.8782 21.7528 21.867 21.7733 21.8556C21.7904 21.8462 21.8076 21.8367 21.8227 21.8231C29.3047 14.366 39.4375 10.1787 50.0011 10.1787C60.5646 10.1787 70.6974 14.366 78.1794 21.8231C78.196 21.8381 78.2135 21.8481 78.231 21.8581C78.2486 21.8681 78.2661 21.8781 78.2827 21.8931C78.3008 21.9094 78.3111 21.9287 78.3215 21.9482C78.3302 21.9646 78.339 21.9812 78.3527 21.9964C85.8108 29.4785 89.9988 39.6121 89.9988 50.1764C89.9988 60.7408 85.8108 70.8743 78.3527 78.3564ZM16.9194 53.6964C16.8983 53.6942 16.8772 53.6919 16.8561 53.6898V53.7031C16.8917 54.0392 16.9324 54.3744 16.9782 54.7085C17.7644 60.4481 20.0404 65.8823 23.5793 70.469C23.784 70.7344 23.9929 70.9969 24.2061 71.2564L34.4394 61.0231C34.1797 60.81 33.9171 60.6012 33.6517 60.3966C29.0602 56.8572 23.6189 54.5861 17.8738 53.811C17.5775 53.7711 17.2804 53.7351 16.9825 53.7031C16.9615 53.7008 16.9404 53.6986 16.9194 53.6964ZM60.2028 33.8153C56.6637 29.2242 54.3927 23.7834 53.6175 18.0389C53.5718 17.7002 53.5313 17.3605 53.4961 17.0198C53.8367 17.0556 54.1763 17.0967 54.515 17.143C60.2479 17.9265 65.6769 20.1964 70.2615 23.727C70.527 23.9315 70.7896 24.1402 71.0494 24.3531L60.8294 34.6031C60.6163 34.3434 60.4074 34.0808 60.2028 33.8153ZM56.1194 39.3431C50.948 33.235 47.7433 25.7137 46.9148 17.7653C46.8883 17.5117 46.8643 17.2576 46.8427 17.0031C46.5104 17.0345 46.1789 17.0709 45.8484 17.1122C39.9717 17.847 34.3981 20.1413 29.7072 23.7567C29.4417 23.9613 29.1791 24.1701 28.9194 24.3831L49.9994 45.4631L56.1194 39.3431ZM39.1527 65.7364L28.9327 75.9698C29.1923 76.1829 29.4548 76.3918 29.7201 76.5965C34.3032 80.1327 39.7325 82.4079 45.4671 83.1958C45.8057 83.2423 46.1454 83.2836 46.4861 83.3198C46.4508 82.979 46.4103 82.6392 46.3646 82.3005C45.5893 76.556 43.3184 71.1152 39.7793 66.5242C39.5747 66.2587 39.3658 65.9961 39.1527 65.7364ZM70.2918 76.5964C65.6015 80.2129 60.0275 82.5074 54.1504 83.2409C53.8199 83.2821 53.4884 83.3184 53.1561 83.3498C53.1348 83.0988 53.1112 82.8482 53.0852 82.598C52.2592 74.6459 49.0525 67.1213 43.8761 61.0131L49.9994 54.8898L71.0794 75.9698C70.8197 76.1828 70.5572 76.3917 70.2918 76.5964ZM54.7127 50.1764L60.8327 44.0564C66.9428 49.2298 74.4672 52.4351 82.4187 53.2625C82.6673 53.2883 82.9164 53.3119 83.1658 53.3331C83.1657 53.3331 83.1659 53.3331 83.1658 53.3331C83.1344 53.6654 83.0983 53.9969 83.0569 54.3274C82.3222 60.2042 80.0278 65.7777 76.4125 70.4686C76.2079 70.7341 75.9991 70.9967 75.786 71.2564L54.7127 50.1764Z" fill="url(#paint0_linear_1753_6485)"/>
<path fill-rule="evenodd" clip-rule="evenodd" d="M77.5581 77.7371L77.6445 77.6505C84.9158 70.3558 88.9988 60.4761 88.9988 50.1764C88.9988 39.8767 84.9158 29.9971 77.6445 22.7024L77.6265 22.6843L77.6094 22.6654C77.593 22.6472 77.578 22.6293 77.5642 22.612C77.5469 22.5981 77.5289 22.583 77.5104 22.5664L77.4915 22.5494L77.4735 22.5314C70.1789 15.2611 60.3 11.1787 50.0011 11.1787C39.7022 11.1787 29.8232 15.2611 22.5287 22.5314L22.5106 22.5494L22.4917 22.5664C22.4721 22.584 22.453 22.6 22.4346 22.6145C22.4201 22.6328 22.4039 22.6522 22.386 22.6721L22.369 22.691L22.351 22.709C15.0817 30.0034 11 39.8817 11 50.1798C11 60.4779 15.0817 70.3561 22.351 77.6505L22.369 77.6686L22.386 77.6875C22.4036 77.707 22.4196 77.7262 22.4341 77.7445C22.4525 77.7591 22.4718 77.7752 22.4917 77.7931L22.5106 77.8102L22.5287 77.8281C29.8232 85.0984 39.7022 89.1808 50.0011 89.1808C60.3 89.1808 70.1789 85.0984 77.4735 77.8281L77.4915 77.8102L77.5104 77.7931C77.5203 77.7842 77.5302 77.7757 77.5399 77.7675L77.5581 77.7371ZM15.8561 52.5809L16.959 52.6951C23.6073 53.3831 29.9067 56.0103 35.0737 60.25L35.9267 60.95L24.1332 72.7435L23.4332 71.891C19.1974 66.7324 16.5652 60.4462 15.8616 53.8085L15.8561 53.7559V52.5809ZM24.1468 29.0478L24.8141 28.3022L25.6211 28.9478L25.5523 29.0317L46.7003 50.1764L39.2187 57.658L38.5162 57.0626C32.3753 51.8583 24.7657 48.6964 16.7449 48.0162L15.739 47.9309L15.8338 46.9258C16.4731 40.1523 19.119 33.7236 23.4328 28.4624L24.1468 29.0478ZM23.7075 29.7196C23.6643 29.775 23.6212 29.8305 23.5783 29.8862C19.9649 34.577 17.6721 40.1498 16.9384 46.0254C16.8971 46.3559 16.8608 46.6874 16.8294 47.0198C17.0806 47.0411 17.3314 47.0647 17.5819 47.0908C25.5325 47.9175 33.0556 51.1241 39.1627 56.2998L45.2861 50.1764L24.2046 29.0983C24.0363 29.3036 23.8706 29.5107 23.7075 29.7196ZM83.1427 46.6498C83.1417 46.6397 83.1406 46.6297 83.1395 46.6196C83.1375 46.6011 83.1356 46.5826 83.1335 46.5641C83.0993 46.2483 83.0606 45.9332 83.0174 45.6191C82.2278 39.8777 79.9473 34.4427 76.4034 29.8566C76.1985 29.5915 75.9894 29.3291 75.776 29.0698L65.5427 39.3031C65.8024 39.5161 66.0651 39.7249 66.3306 39.9295C70.9263 43.4706 76.3724 45.7423 82.1222 46.5168C82.4558 46.5617 82.7905 46.6016 83.126 46.6364L83.1427 46.6498ZM82.7289 47.5993L84.3892 48.9275L84.1372 46.5446C83.4339 39.8955 80.7953 33.5988 76.5484 28.4346L75.8483 27.5833L64.0552 39.3764L64.9086 40.0763C70.0001 44.252 76.1895 46.8636 82.7289 47.5993ZM60.7573 36.0917L60.0563 35.2374C55.8166 30.0704 53.1894 23.771 52.5014 17.1227L52.3744 15.8962L53.6008 16.0253C60.2366 16.7239 66.5226 19.35 71.6833 23.5797L72.5359 24.2785L60.7573 36.0917ZM57.4773 39.3994L49.9994 46.8773L27.4319 24.3098L28.2852 23.6099C33.546 19.2949 39.9747 16.6478 46.7486 16.0075L47.7538 15.9125L47.8391 16.9186C48.5196 24.9408 51.6803 32.5523 56.8826 38.6969L57.4773 39.3994ZM39.2254 64.2485L39.9258 65.1021C44.1655 70.2691 46.7927 76.5685 47.4807 83.2168L47.6078 84.4443L46.3807 84.3142C39.743 83.6106 33.4567 80.9784 28.2981 76.7426L27.4462 76.0431L39.2254 64.2485ZM42.5178 60.9571L49.9994 53.4755L72.5667 76.0428L71.7138 76.7428C66.4537 81.0594 60.0244 83.7067 53.2499 84.3453L52.2448 84.4401L52.1596 83.4342C51.4801 75.4123 48.3181 67.8014 43.1132 61.6596L42.5178 60.9571ZM53.2986 50.1763L60.7764 42.6985L61.4789 43.2932C67.6217 48.4943 75.2308 51.6549 83.2508 52.3367L84.2566 52.4222L84.1616 53.4272C83.5213 60.2011 80.8743 66.6298 76.5592 71.8906L75.8592 72.744L53.2986 50.1763ZM78.3527 78.3564C78.3475 78.3652 78.3422 78.3747 78.3367 78.3845C78.3215 78.4119 78.3048 78.4419 78.2827 78.4664C78.2664 78.4845 78.2472 78.4948 78.2276 78.5052C78.2112 78.5139 78.1946 78.5227 78.1794 78.5364C70.6974 85.9935 60.5646 90.1808 50.0011 90.1808C39.4375 90.1808 29.3047 85.9935 21.8227 78.5364C21.8061 78.5214 21.7877 78.5106 21.7694 78.4997C21.7511 78.4889 21.7327 78.4781 21.7161 78.4631C21.6979 78.4467 21.6866 78.4264 21.6753 78.4058C21.6658 78.3887 21.6563 78.3716 21.6427 78.3564C14.1866 70.8746 10 60.7425 10 50.1798C10 39.617 14.1866 29.4849 21.6427 22.0031C21.6577 21.9864 21.6686 21.9681 21.6794 21.9498C21.6902 21.9314 21.7011 21.9131 21.7161 21.8964C21.7324 21.8782 21.7528 21.867 21.7733 21.8556C21.7904 21.8462 21.8076 21.8367 21.8227 21.8231C29.3047 14.366 39.4375 10.1787 50.0011 10.1787C60.5646 10.1787 70.6974 14.366 78.1794 21.8231C78.196 21.8381 78.2135 21.8481 78.231 21.8581C78.2486 21.8681 78.2661 21.8781 78.2827 21.8931C78.3008 21.9094 78.3111 21.9287 78.3215 21.9482C78.3302 21.9646 78.339 21.9812 78.3527 21.9964C85.8108 29.4785 89.9988 39.6121 89.9988 50.1764C89.9988 60.7408 85.8108 70.8743 78.3527 78.3564ZM16.9194 53.6964C16.8983 53.6942 16.8772 53.6919 16.8561 53.6898V53.7031C16.8917 54.0392 16.9324 54.3744 16.9782 54.7085C17.7644 60.4481 20.0404 65.8823 23.5793 70.469C23.784 70.7344 23.9929 70.9969 24.2061 71.2564L34.4394 61.0231C34.1797 60.81 33.9171 60.6012 33.6517 60.3966C29.0602 56.8572 23.6189 54.5861 17.8738 53.811C17.5775 53.7711 17.2804 53.7351 16.9825 53.7031C16.9615 53.7008 16.9404 53.6986 16.9194 53.6964ZM60.2028 33.8153C56.6637 29.2242 54.3927 23.7834 53.6175 18.0389C53.5718 17.7002 53.5313 17.3605 53.4961 17.0198C53.8367 17.0556 54.1763 17.0967 54.515 17.143C60.2479 17.9265 65.6769 20.1964 70.2615 23.727C70.527 23.9315 70.7896 24.1402 71.0494 24.3531L60.8294 34.6031C60.6163 34.3434 60.4074 34.0808 60.2028 33.8153ZM56.1194 39.3431C50.948 33.235 47.7433 25.7137 46.9148 17.7653C46.8883 17.5117 46.8643 17.2576 46.8427 17.0031C46.5104 17.0345 46.1789 17.0709 45.8484 17.1122C39.9717 17.847 34.3981 20.1413 29.7072 23.7567C29.4417 23.9613 29.1791 24.1701 28.9194 24.3831L49.9994 45.4631L56.1194 39.3431ZM39.1527 65.7364L28.9327 75.9698C29.1923 76.1829 29.4548 76.3918 29.7201 76.5965C34.3032 80.1327 39.7325 82.4079 45.4671 83.1958C45.8057 83.2423 46.1454 83.2836 46.4861 83.3198C46.4508 82.979 46.4103 82.6392 46.3646 82.3005C45.5893 76.556 43.3184 71.1152 39.7793 66.5242C39.5747 66.2587 39.3658 65.9961 39.1527 65.7364ZM70.2918 76.5964C65.6015 80.2129 60.0275 82.5074 54.1504 83.2409C53.8199 83.2821 53.4884 83.3184 53.1561 83.3498C53.1348 83.0988 53.1112 82.8482 53.0852 82.598C52.2592 74.6459 49.0525 67.1213 43.8761 61.0131L49.9994 54.8898L71.0794 75.9698C70.8197 76.1828 70.5572 76.3917 70.2918 76.5964ZM54.7127 50.1764L60.8327 44.0564C66.9428 49.2298 74.4672 52.4351 82.4187 53.2625C82.6673 53.2883 82.9164 53.3119 83.1658 53.3331C83.1657 53.3331 83.1659 53.3331 83.1658 53.3331C83.1344 53.6654 83.0983 53.9969 83.0569 54.3274C82.3222 60.2042 80.0278 65.7777 76.4125 70.4686C76.2079 70.7341 75.9991 70.9967 75.786 71.2564L54.7127 50.1764Z" fill="url(#paint1_radial_1753_6485)"/>
</g>
</g>
<defs>
<filter id="filter0_b_1753_6485" x="-20" y="-19.8213" width="139.998" height="140.002" filterUnits="userSpaceOnUse" color-interpolation-filters="sRGB">
<feFlood flood-opacity="0" result="BackgroundImageFix"/>
<feGaussianBlur in="BackgroundImageFix" stdDeviation="15"/>
<feComposite in2="SourceAlpha" operator="in" result="effect1_backgroundBlur_1753_6485"/>
<feBlend mode="normal" in="SourceGraphic" in2="effect1_backgroundBlur_1753_6485" result="shape"/>
</filter>
<filter id="filter1_b_1753_6485" x="-20" y="-19.8213" width="139.998" height="140.002" filterUnits="userSpaceOnUse" color-interpolation-filters="sRGB">
<feFlood flood-opacity="0" result="BackgroundImageFix"/>
<feGaussianBlur in="BackgroundImageFix" stdDeviation="15"/>
<feComposite in2="SourceAlpha" operator="in" result="effect1_backgroundBlur_1753_6485"/>
<feBlend mode="normal" in="SourceGraphic" in2="effect1_backgroundBlur_1753_6485" result="shape"/>
</filter>
<linearGradient id="paint0_linear_1753_6485" x1="21.5127" y1="7.32149" x2="96.4998" y2="51.1019" gradientUnits="userSpaceOnUse">
<stop offset="0.188941" stop-color="#E7F0FF" stop-opacity="0.523483"/>
<stop offset="0.526042" stop-color="#88A4FF"/>
<stop offset="1" stop-color="#B4D2FF" stop-opacity="0.1"/>
</linearGradient>
<radialGradient id="paint1_radial_1753_6485" cx="0" cy="0" r="1" gradientUnits="userSpaceOnUse" gradientTransform="translate(21.9555 87.5617) rotate(-50.9785) scale(62.8269 102.728)">
<stop stop-color="white"/>
<stop offset="1" stop-color="white" stop-opacity="0"/>
</radialGradient>
<clipPath id="clip0_1753_6485">
<rect width="80" height="80" fill="white" transform="translate(10 10.1763)"/>
</clipPath>
</defs>
</svg>
