<svg width="100" height="100" viewBox="0 0 100 100" fill="none" xmlns="http://www.w3.org/2000/svg">
<path d="M45.9023 18.2459C45.9023 12.5872 50.4896 8 56.1482 8H89.7548C95.4135 8 100.001 12.5872 100.001 18.2459V35.8689C100.001 41.5275 95.4135 46.1148 89.7548 46.1148H56.1482C50.4896 46.1148 45.9023 41.5275 45.9023 35.8689V18.2459Z" fill="#04211A" fill-opacity="0.4"/>
<path d="M46.4023 18.2459C46.4023 12.8634 50.7657 8.5 56.1482 8.5H89.7548C95.1373 8.5 99.5007 12.8634 99.5007 18.2459V35.8689C99.5007 41.2514 95.1373 45.6148 89.7548 45.6148H56.1482C50.7657 45.6148 46.4023 41.2514 46.4023 35.8689V18.2459Z" stroke="#66FFD1" stroke-opacity="0.2"/>
<g clip-path="url(#clip0_1753_6487)">
<g filter="url(#filter0_b_1753_6487)">
<path d="M85.8961 47.4641C84.4889 43.8027 82.9476 39.7592 80.4729 36.6619C78.6021 34.3206 75.0944 32.293 71.989 32.7672C71.9487 32.7733 71.6893 32.83 71.2385 32.9308C71.3506 33.7078 71.4078 34.4957 71.4078 35.292C71.4078 37.5023 70.9739 39.6493 70.1179 41.6731C69.292 43.6254 68.1111 45.3776 66.6075 46.8813C65.104 48.3847 63.3517 49.5659 61.3994 50.3916C59.3756 51.2476 57.2286 51.6816 55.0183 51.6816C52.8079 51.6816 50.661 51.2476 48.6372 50.3916C46.6849 49.5658 44.9327 48.3847 43.429 46.8813C41.9255 45.3777 40.7444 43.6254 39.9187 41.6731C39.7157 41.1931 39.5373 40.7059 39.3819 40.2129C26.5026 43.1672 14.5612 45.9113 13.8638 46.0737C13.2492 46.2167 12.501 46.3021 11.9493 46.5957C11.4839 46.8433 11.1504 47.2392 11.1504 47.9425V80.0912C11.1504 81.3581 12.4898 82.5251 14.1401 82.697L26.0909 83.9398L79.8443 89.5346C84.7874 90.0497 88.8004 87.3846 88.8004 83.5802C88.8004 81.1785 87.202 78.9047 84.7802 77.4179C87.202 76.4392 88.8008 74.493 88.8008 72.095C88.8008 69.6974 87.2022 67.4235 84.7846 65.941C91.9296 63.0304 87.8931 52.6605 85.8961 47.4641ZM70.1587 83.3003L17.466 77.8136V72.5468L70.1587 78.0293C75.102 78.5449 79.1143 80.1395 79.1143 81.5938C79.1143 83.0486 75.102 83.8158 70.1587 83.3003ZM70.1587 72.8025L17.466 67.3158V62.0448L70.1587 67.5355C75.102 68.0511 79.1143 69.6453 79.1143 71.1C79.1143 72.5545 75.102 73.3181 70.1587 72.8025ZM70.1587 62.3048L17.466 56.8218V51.5508L70.1587 57.0338C75.102 57.549 79.1143 59.1478 79.1143 60.602C79.1143 62.0609 75.102 62.82 70.1587 62.3048Z" fill="#00FFB2"/>
</g>
<g filter="url(#filter1_b_1753_6487)">
<path fill-rule="evenodd" clip-rule="evenodd" d="M85.8206 65.422C91.4743 61.9768 87.8356 52.5101 85.9328 47.5596L85.8551 47.3574C84.4589 43.7243 82.9236 39.7291 80.4729 36.6619C78.6021 34.3206 75.0944 32.293 71.989 32.7672C71.9487 32.7733 71.6893 32.83 71.2385 32.9308C71.3506 33.7078 71.4078 34.4957 71.4078 35.292C71.4078 37.5023 70.9739 39.6493 70.1179 41.6731C69.292 43.6254 68.1111 45.3776 66.6075 46.8813C65.104 48.3847 63.3517 49.5659 61.3994 50.3916C59.3756 51.2476 57.2286 51.6816 55.0183 51.6816C52.8079 51.6816 50.661 51.2476 48.6372 50.3916C46.6849 49.5658 44.9327 48.3847 43.429 46.8813C41.9255 45.3777 40.7444 43.6254 39.9187 41.6731C39.7157 41.1931 39.5373 40.7059 39.3819 40.2129C26.5026 43.1672 14.5612 45.9113 13.8638 46.0737C13.7077 46.11 13.543 46.1426 13.375 46.1759C12.8818 46.2736 12.3608 46.3767 11.9493 46.5957C11.4839 46.8433 11.1504 47.2392 11.1504 47.9425V80.0912C11.1504 81.3581 12.4898 82.5251 14.1401 82.697L79.8443 89.5346C84.7874 90.0497 88.8004 87.3846 88.8004 83.5802C88.8004 81.5131 87.6164 79.5408 85.7424 78.0834C85.4391 77.8475 85.1176 77.6251 84.7802 77.4179C85.1487 77.269 85.4981 77.0977 85.8258 76.9058C87.6515 75.8365 88.8008 74.1282 88.8008 72.095C88.8008 70.0312 87.6164 68.0591 85.7447 66.6044C85.4419 66.3691 85.1212 66.1474 84.7846 65.941C85.1602 65.788 85.5049 65.6144 85.8206 65.422ZM14.2437 81.7024L26.1943 82.9452L79.9478 88.5399C82.2228 88.777 84.2221 88.2751 85.6225 87.3444C87.012 86.4209 87.8004 85.0945 87.8004 83.5802C87.8004 81.6362 86.4903 79.6411 84.257 78.2702L82.5681 77.2334L84.4055 76.4908C86.5505 75.6239 87.8008 73.9864 87.8008 72.095C87.8008 70.1551 86.4905 68.1601 84.2618 66.7934L82.5772 65.7604L84.4073 65.0149C85.9411 64.39 86.8323 63.396 87.3271 62.1799C87.837 60.9268 87.9478 59.378 87.7737 57.6606C87.4261 54.2327 85.9891 50.4937 84.981 47.8706L84.9511 47.7927C83.5341 44.1058 82.0452 40.2318 79.6917 37.2861C78.8506 36.2335 77.6228 35.2328 76.2511 34.5553C74.9454 33.9105 73.5788 33.5916 72.3382 33.7296C72.3844 34.2465 72.4078 34.7676 72.4078 35.292C72.4078 37.6353 71.9474 39.9148 71.0389 42.0626C70.1627 44.134 68.909 45.9939 67.3146 47.5883C65.7203 49.1826 63.8602 50.4366 61.7889 51.3126C59.6411 52.221 57.3616 52.6816 55.0183 52.6816C52.6749 52.6816 50.3955 52.221 48.2477 51.3126C46.1763 50.4365 44.3164 49.1826 42.722 47.5884C41.1277 45.9941 39.8737 44.134 38.9977 42.0626C38.9032 41.8392 38.8138 41.6145 38.7293 41.3886C26.1883 44.2655 14.7701 46.8894 14.0906 47.0476C13.9183 47.0877 13.7402 47.123 13.5782 47.1551L13.5763 47.1555C13.4086 47.1887 13.255 47.2191 13.1053 47.2532C12.7981 47.3233 12.5764 47.3948 12.4191 47.4785C12.2933 47.5454 12.2399 47.6029 12.2138 47.6431C12.1918 47.677 12.1504 47.7566 12.1504 47.9425V80.0912C12.1504 80.3616 12.2974 80.7144 12.6834 81.0508C13.0638 81.3824 13.6162 81.637 14.2437 81.7024C14.2437 81.7024 14.2437 81.7024 14.2437 81.7024ZM70.1587 78.0293C75.102 78.5449 79.1143 80.1395 79.1143 81.5938C79.1143 83.0486 75.102 83.8158 70.1587 83.3003L17.466 77.8136V72.5468L70.1587 78.0293ZM16.466 78.7149V71.4373L70.2622 77.0347C72.8014 77.2995 75.1341 77.8438 76.8599 78.5304C77.7176 78.8716 78.4736 79.2668 79.0341 79.7144C79.5586 80.1332 80.1143 80.763 80.1143 81.5938C80.1143 82.4815 79.4939 83.0672 78.9196 83.4072C78.3246 83.7594 77.5409 84.0035 76.6776 84.1682C74.9342 84.5008 72.5927 84.5595 70.055 84.2949L16.466 78.7149ZM70.1587 67.5355C75.102 68.0511 79.1143 69.6453 79.1143 71.1C79.1143 72.5545 75.102 73.3181 70.1587 72.8025L17.466 67.3158V62.0448L70.1587 67.5355ZM70.055 73.7971L16.466 68.2171V60.9352L70.2624 66.5409C72.8015 66.8057 75.134 67.3499 76.8598 68.0364C77.7176 68.3776 78.4736 68.7728 79.0341 69.2205C79.5587 69.6394 80.1143 70.2691 80.1143 71.1C80.1143 71.988 79.4934 72.5734 78.9191 72.913C78.324 73.2648 77.5403 73.5083 76.677 73.6725C74.9338 74.004 72.5923 74.0618 70.055 73.7971C70.0549 73.7971 70.055 73.7971 70.055 73.7971ZM70.1587 57.0338C75.102 57.549 79.1143 59.1478 79.1143 60.602C79.1143 62.0609 75.102 62.82 70.1587 62.3048L17.466 56.8218V51.5508L70.1587 57.0338ZM16.466 57.7232V50.4414L70.2622 56.0391C72.8017 56.3038 75.1345 56.8491 76.8604 57.5368C77.7181 57.8786 78.4741 58.2743 79.0345 58.7223C79.5588 59.1414 80.1143 59.7714 80.1143 60.602C80.1143 61.4901 79.4948 62.0761 78.9193 62.4166C78.324 62.7689 77.54 63.0122 76.6767 63.1761C74.9334 63.5071 72.5922 63.5638 70.0552 63.2994C70.0552 63.2994 70.0553 63.2994 70.0552 63.2994L16.466 57.7232Z" fill="url(#paint0_linear_1753_6487)"/>
<path fill-rule="evenodd" clip-rule="evenodd" d="M85.8206 65.422C91.4743 61.9768 87.8356 52.5101 85.9328 47.5596L85.8551 47.3574C84.4589 43.7243 82.9236 39.7291 80.4729 36.6619C78.6021 34.3206 75.0944 32.293 71.989 32.7672C71.9487 32.7733 71.6893 32.83 71.2385 32.9308C71.3506 33.7078 71.4078 34.4957 71.4078 35.292C71.4078 37.5023 70.9739 39.6493 70.1179 41.6731C69.292 43.6254 68.1111 45.3776 66.6075 46.8813C65.104 48.3847 63.3517 49.5659 61.3994 50.3916C59.3756 51.2476 57.2286 51.6816 55.0183 51.6816C52.8079 51.6816 50.661 51.2476 48.6372 50.3916C46.6849 49.5658 44.9327 48.3847 43.429 46.8813C41.9255 45.3777 40.7444 43.6254 39.9187 41.6731C39.7157 41.1931 39.5373 40.7059 39.3819 40.2129C26.5026 43.1672 14.5612 45.9113 13.8638 46.0737C13.7077 46.11 13.543 46.1426 13.375 46.1759C12.8818 46.2736 12.3608 46.3767 11.9493 46.5957C11.4839 46.8433 11.1504 47.2392 11.1504 47.9425V80.0912C11.1504 81.3581 12.4898 82.5251 14.1401 82.697L79.8443 89.5346C84.7874 90.0497 88.8004 87.3846 88.8004 83.5802C88.8004 81.5131 87.6164 79.5408 85.7424 78.0834C85.4391 77.8475 85.1176 77.6251 84.7802 77.4179C85.1487 77.269 85.4981 77.0977 85.8258 76.9058C87.6515 75.8365 88.8008 74.1282 88.8008 72.095C88.8008 70.0312 87.6164 68.0591 85.7447 66.6044C85.4419 66.3691 85.1212 66.1474 84.7846 65.941C85.1602 65.788 85.5049 65.6144 85.8206 65.422ZM14.2437 81.7024L26.1943 82.9452L79.9478 88.5399C82.2228 88.777 84.2221 88.2751 85.6225 87.3444C87.012 86.4209 87.8004 85.0945 87.8004 83.5802C87.8004 81.6362 86.4903 79.6411 84.257 78.2702L82.5681 77.2334L84.4055 76.4908C86.5505 75.6239 87.8008 73.9864 87.8008 72.095C87.8008 70.1551 86.4905 68.1601 84.2618 66.7934L82.5772 65.7604L84.4073 65.0149C85.9411 64.39 86.8323 63.396 87.3271 62.1799C87.837 60.9268 87.9478 59.378 87.7737 57.6606C87.4261 54.2327 85.9891 50.4937 84.981 47.8706L84.9511 47.7927C83.5341 44.1058 82.0452 40.2318 79.6917 37.2861C78.8506 36.2335 77.6228 35.2328 76.2511 34.5553C74.9454 33.9105 73.5788 33.5916 72.3382 33.7296C72.3844 34.2465 72.4078 34.7676 72.4078 35.292C72.4078 37.6353 71.9474 39.9148 71.0389 42.0626C70.1627 44.134 68.909 45.9939 67.3146 47.5883C65.7203 49.1826 63.8602 50.4366 61.7889 51.3126C59.6411 52.221 57.3616 52.6816 55.0183 52.6816C52.6749 52.6816 50.3955 52.221 48.2477 51.3126C46.1763 50.4365 44.3164 49.1826 42.722 47.5884C41.1277 45.9941 39.8737 44.134 38.9977 42.0626C38.9032 41.8392 38.8138 41.6145 38.7293 41.3886C26.1883 44.2655 14.7701 46.8894 14.0906 47.0476C13.9183 47.0877 13.7402 47.123 13.5782 47.1551L13.5763 47.1555C13.4086 47.1887 13.255 47.2191 13.1053 47.2532C12.7981 47.3233 12.5764 47.3948 12.4191 47.4785C12.2933 47.5454 12.2399 47.6029 12.2138 47.6431C12.1918 47.677 12.1504 47.7566 12.1504 47.9425V80.0912C12.1504 80.3616 12.2974 80.7144 12.6834 81.0508C13.0638 81.3824 13.6162 81.637 14.2437 81.7024C14.2437 81.7024 14.2437 81.7024 14.2437 81.7024ZM70.1587 78.0293C75.102 78.5449 79.1143 80.1395 79.1143 81.5938C79.1143 83.0486 75.102 83.8158 70.1587 83.3003L17.466 77.8136V72.5468L70.1587 78.0293ZM16.466 78.7149V71.4373L70.2622 77.0347C72.8014 77.2995 75.1341 77.8438 76.8599 78.5304C77.7176 78.8716 78.4736 79.2668 79.0341 79.7144C79.5586 80.1332 80.1143 80.763 80.1143 81.5938C80.1143 82.4815 79.4939 83.0672 78.9196 83.4072C78.3246 83.7594 77.5409 84.0035 76.6776 84.1682C74.9342 84.5008 72.5927 84.5595 70.055 84.2949L16.466 78.7149ZM70.1587 67.5355C75.102 68.0511 79.1143 69.6453 79.1143 71.1C79.1143 72.5545 75.102 73.3181 70.1587 72.8025L17.466 67.3158V62.0448L70.1587 67.5355ZM70.055 73.7971L16.466 68.2171V60.9352L70.2624 66.5409C72.8015 66.8057 75.134 67.3499 76.8598 68.0364C77.7176 68.3776 78.4736 68.7728 79.0341 69.2205C79.5587 69.6394 80.1143 70.2691 80.1143 71.1C80.1143 71.988 79.4934 72.5734 78.9191 72.913C78.324 73.2648 77.5403 73.5083 76.677 73.6725C74.9338 74.004 72.5923 74.0618 70.055 73.7971C70.0549 73.7971 70.055 73.7971 70.055 73.7971ZM70.1587 57.0338C75.102 57.549 79.1143 59.1478 79.1143 60.602C79.1143 62.0609 75.102 62.82 70.1587 62.3048L17.466 56.8218V51.5508L70.1587 57.0338ZM16.466 57.7232V50.4414L70.2622 56.0391C72.8017 56.3038 75.1345 56.8491 76.8604 57.5368C77.7181 57.8786 78.4741 58.2743 79.0345 58.7223C79.5588 59.1414 80.1143 59.7714 80.1143 60.602C80.1143 61.4901 79.4948 62.0761 78.9193 62.4166C78.324 62.7689 77.54 63.0122 76.6767 63.1761C74.9334 63.5071 72.5922 63.5638 70.0552 63.2994C70.0552 63.2994 70.0553 63.2994 70.0552 63.2994L16.466 57.7232Z" fill="url(#paint1_radial_1753_6487)"/>
</g>
<g filter="url(#filter2_b_1753_6487)">
<path d="M43.68 35.2919C43.68 36.6198 43.9092 37.894 44.3285 39.0781C45.8869 43.4774 50.0836 46.6289 55.0169 46.6289C61.2782 46.6289 66.3538 41.5532 66.3538 35.292C66.3538 34.8734 66.3305 34.4604 66.2862 34.0534C65.6691 28.375 60.8596 23.9551 55.0169 23.9551C54.4201 23.9551 53.8344 24.0015 53.2626 24.0903C52.8746 23.2966 52.4446 22.5208 51.9812 21.7644C51.5141 21.002 51.0134 20.2593 50.4894 19.537C49.8473 18.6518 49.1702 17.7973 48.4759 16.976C47.1849 15.4488 45.7835 14.0032 44.2432 12.7252C42.8944 11.606 41.4602 10.5278 39.8486 9.81463C38.9372 9.41126 37.8922 9.53976 37.3469 10.4706C36.8862 11.2572 37.091 12.5689 38.0029 12.9724C38.7593 13.3072 39.478 13.7243 40.1623 14.188C40.36 14.322 40.5561 14.4582 40.7491 14.599C40.8194 14.6504 41.0714 14.8426 41.1378 14.8915C41.4301 15.1229 41.719 15.3585 42.0012 15.6022C42.7455 16.2454 43.4613 16.922 44.1448 17.6296C44.8644 18.3746 45.5561 19.1469 46.2118 19.9489C46.3981 20.1767 46.5829 20.4059 46.764 20.638C46.7644 20.6385 46.7647 20.639 46.7652 20.6395C46.7717 20.6481 46.7789 20.6576 46.7869 20.668C46.8631 20.7687 46.9395 20.8694 47.0148 20.9708C47.0175 20.9745 47.0202 20.9783 47.0231 20.982C47.3206 21.383 47.6122 21.7885 47.8928 22.2017C48.0889 22.4902 48.2808 22.7817 48.4687 23.0758C48.8352 23.6494 49.1849 24.2338 49.5103 24.8317C49.5873 24.9731 49.6629 25.1152 49.7378 25.2577C46.1358 27.1566 43.68 30.9372 43.68 35.2919Z" fill="#00FFB2"/>
</g>
<g filter="url(#filter3_b_1753_6487)">
<path fill-rule="evenodd" clip-rule="evenodd" d="M49.2585 24.3799C49.3439 24.5297 49.4279 24.6803 49.5103 24.8317C49.5685 24.9386 49.626 25.0459 49.6829 25.1535C49.7012 25.1882 49.7195 25.2229 49.7378 25.2577C46.1358 27.1566 43.68 30.9372 43.68 35.2919C43.68 36.6198 43.9092 37.894 44.3285 39.0781C45.8869 43.4774 50.0836 46.6289 55.0169 46.6289C61.2782 46.6289 66.3538 41.5532 66.3538 35.292C66.3538 34.8734 66.3305 34.4604 66.2862 34.0534C65.6691 28.375 60.8596 23.9551 55.0169 23.9551C54.4201 23.9551 53.8344 24.0015 53.2626 24.0903C52.8746 23.2966 52.4446 22.5208 51.9812 21.7644C51.5141 21.002 51.0134 20.2593 50.4894 19.537C49.8473 18.6518 49.1702 17.7973 48.4759 16.976C47.1849 15.4488 45.7835 14.0032 44.2432 12.7252C42.8944 11.606 41.4602 10.5278 39.8486 9.81463C38.9372 9.41126 37.8922 9.53976 37.3469 10.4706C36.8862 11.2572 37.091 12.5689 38.0029 12.9724C38.7593 13.3072 39.478 13.7243 40.1623 14.188C40.36 14.322 40.5561 14.4582 40.7491 14.599C40.7874 14.627 40.8797 14.6969 40.9665 14.7625C41.039 14.8173 41.1076 14.8693 41.1378 14.8915C41.4301 15.1229 41.719 15.3585 42.0012 15.6022C42.7455 16.2454 43.4613 16.922 44.1448 17.6296C44.8644 18.3746 45.5561 19.1469 46.2118 19.9489C46.3981 20.1767 46.5829 20.4059 46.764 20.638L46.7652 20.6395L46.7869 20.668C46.7966 20.6808 46.8063 20.6937 46.816 20.7065C46.8825 20.7944 46.9491 20.8823 47.0148 20.9708L47.0149 20.9708C47.0176 20.9746 47.0202 20.9784 47.0231 20.982C47.3206 21.383 47.6122 21.7885 47.8928 22.2017C48.0889 22.4902 48.2808 22.7817 48.4687 23.0758C48.7424 23.5041 49.0066 23.9384 49.2585 24.3799ZM48.7201 21.6398C48.9215 21.9363 49.1185 22.2355 49.3113 22.5372L49.3114 22.5374C49.6884 23.1274 50.0503 23.732 50.3886 24.3536C50.4685 24.5004 50.5465 24.647 50.623 24.7925L51.0875 25.6766L50.2041 26.1423C46.9172 27.8751 44.68 31.3228 44.68 35.2919C44.68 36.504 44.8891 37.6654 45.2712 38.7443C46.6926 42.757 50.5204 45.6289 55.0169 45.6289C60.7259 45.6289 65.3538 41.001 65.3538 35.292C65.3538 34.9106 65.3325 34.5337 65.292 34.1617L65.292 34.1615C64.7295 28.9848 60.3434 24.9551 55.0169 24.9551C54.4721 24.9551 53.9376 24.9974 53.4161 25.0785L52.6878 25.1916L52.3642 24.5294C51.9913 23.7665 51.5769 23.0186 51.1285 22.2869L51.1285 22.2868C50.6765 21.549 50.1905 20.8279 49.68 20.1242C49.0543 19.2616 48.3928 18.4267 47.7122 17.6216C46.4499 16.1284 45.0899 14.727 43.6047 13.4948L43.6046 13.4947C42.2719 12.3889 40.9245 11.3843 39.4439 10.7291L39.4439 10.7291C39.1454 10.597 38.8746 10.5749 38.6764 10.6187C38.5006 10.6576 38.3395 10.7546 38.2097 10.9761M48.72 21.6397C48.4297 21.2123 48.1297 20.7954 47.8267 20.3869ZM40.7232 13.3602C40.0011 12.8708 39.2299 12.4219 38.4076 12.058L38.4075 12.058C38.3147 12.0169 38.1934 11.901 38.1356 11.645C38.076 11.3811 38.1244 11.1217 38.2097 10.9761" fill="url(#paint2_linear_1753_6487)"/>
<path fill-rule="evenodd" clip-rule="evenodd" d="M49.2585 24.3799C49.3439 24.5297 49.4279 24.6803 49.5103 24.8317C49.5685 24.9386 49.626 25.0459 49.6829 25.1535C49.7012 25.1882 49.7195 25.2229 49.7378 25.2577C46.1358 27.1566 43.68 30.9372 43.68 35.2919C43.68 36.6198 43.9092 37.894 44.3285 39.0781C45.8869 43.4774 50.0836 46.6289 55.0169 46.6289C61.2782 46.6289 66.3538 41.5532 66.3538 35.292C66.3538 34.8734 66.3305 34.4604 66.2862 34.0534C65.6691 28.375 60.8596 23.9551 55.0169 23.9551C54.4201 23.9551 53.8344 24.0015 53.2626 24.0903C52.8746 23.2966 52.4446 22.5208 51.9812 21.7644C51.5141 21.002 51.0134 20.2593 50.4894 19.537C49.8473 18.6518 49.1702 17.7973 48.4759 16.976C47.1849 15.4488 45.7835 14.0032 44.2432 12.7252C42.8944 11.606 41.4602 10.5278 39.8486 9.81463C38.9372 9.41126 37.8922 9.53976 37.3469 10.4706C36.8862 11.2572 37.091 12.5689 38.0029 12.9724C38.7593 13.3072 39.478 13.7243 40.1623 14.188C40.36 14.322 40.5561 14.4582 40.7491 14.599C40.7874 14.627 40.8797 14.6969 40.9665 14.7625C41.039 14.8173 41.1076 14.8693 41.1378 14.8915C41.4301 15.1229 41.719 15.3585 42.0012 15.6022C42.7455 16.2454 43.4613 16.922 44.1448 17.6296C44.8644 18.3746 45.5561 19.1469 46.2118 19.9489C46.3981 20.1767 46.5829 20.4059 46.764 20.638L46.7652 20.6395L46.7869 20.668C46.7966 20.6808 46.8063 20.6937 46.816 20.7065C46.8825 20.7944 46.9491 20.8823 47.0148 20.9708L47.0149 20.9708C47.0176 20.9746 47.0202 20.9784 47.0231 20.982C47.3206 21.383 47.6122 21.7885 47.8928 22.2017C48.0889 22.4902 48.2808 22.7817 48.4687 23.0758C48.7424 23.5041 49.0066 23.9384 49.2585 24.3799ZM48.7201 21.6398C48.9215 21.9363 49.1185 22.2355 49.3113 22.5372L49.3114 22.5374C49.6884 23.1274 50.0503 23.732 50.3886 24.3536C50.4685 24.5004 50.5465 24.647 50.623 24.7925L51.0875 25.6766L50.2041 26.1423C46.9172 27.8751 44.68 31.3228 44.68 35.2919C44.68 36.504 44.8891 37.6654 45.2712 38.7443C46.6926 42.757 50.5204 45.6289 55.0169 45.6289C60.7259 45.6289 65.3538 41.001 65.3538 35.292C65.3538 34.9106 65.3325 34.5337 65.292 34.1617L65.292 34.1615C64.7295 28.9848 60.3434 24.9551 55.0169 24.9551C54.4721 24.9551 53.9376 24.9974 53.4161 25.0785L52.6878 25.1916L52.3642 24.5294C51.9913 23.7665 51.5769 23.0186 51.1285 22.2869L51.1285 22.2868C50.6765 21.549 50.1905 20.8279 49.68 20.1242C49.0543 19.2616 48.3928 18.4267 47.7122 17.6216C46.4499 16.1284 45.0899 14.727 43.6047 13.4948L43.6046 13.4947C42.2719 12.3889 40.9245 11.3843 39.4439 10.7291L39.4439 10.7291C39.1454 10.597 38.8746 10.5749 38.6764 10.6187C38.5006 10.6576 38.3395 10.7546 38.2097 10.9761M48.72 21.6397C48.4297 21.2123 48.1297 20.7954 47.8267 20.3869ZM40.7232 13.3602C40.0011 12.8708 39.2299 12.4219 38.4076 12.058L38.4075 12.058C38.3147 12.0169 38.1934 11.901 38.1356 11.645C38.076 11.3811 38.1244 11.1217 38.2097 10.9761" fill="url(#paint3_radial_1753_6487)"/>
</g>
</g>
<defs>
<filter id="filter0_b_1753_6487" x="-18.8496" y="2.69775" width="137.699" height="116.9" filterUnits="userSpaceOnUse" color-interpolation-filters="sRGB">
<feFlood flood-opacity="0" result="BackgroundImageFix"/>
<feGaussianBlur in="BackgroundImageFix" stdDeviation="15"/>
<feComposite in2="SourceAlpha" operator="in" result="effect1_backgroundBlur_1753_6487"/>
<feBlend mode="normal" in="SourceGraphic" in2="effect1_backgroundBlur_1753_6487" result="shape"/>
</filter>
<filter id="filter1_b_1753_6487" x="-18.8496" y="2.69775" width="137.699" height="116.9" filterUnits="userSpaceOnUse" color-interpolation-filters="sRGB">
<feFlood flood-opacity="0" result="BackgroundImageFix"/>
<feGaussianBlur in="BackgroundImageFix" stdDeviation="15"/>
<feComposite in2="SourceAlpha" operator="in" result="effect1_backgroundBlur_1753_6487"/>
<feBlend mode="normal" in="SourceGraphic" in2="effect1_backgroundBlur_1753_6487" result="shape"/>
</filter>
<filter id="filter2_b_1753_6487" x="7.10938" y="-20.4019" width="89.2441" height="97.0308" filterUnits="userSpaceOnUse" color-interpolation-filters="sRGB">
<feFlood flood-opacity="0" result="BackgroundImageFix"/>
<feGaussianBlur in="BackgroundImageFix" stdDeviation="15"/>
<feComposite in2="SourceAlpha" operator="in" result="effect1_backgroundBlur_1753_6487"/>
<feBlend mode="normal" in="SourceGraphic" in2="effect1_backgroundBlur_1753_6487" result="shape"/>
</filter>
<filter id="filter3_b_1753_6487" x="7.10938" y="-20.4019" width="89.2441" height="97.0308" filterUnits="userSpaceOnUse" color-interpolation-filters="sRGB">
<feFlood flood-opacity="0" result="BackgroundImageFix"/>
<feGaussianBlur in="BackgroundImageFix" stdDeviation="15"/>
<feComposite in2="SourceAlpha" operator="in" result="effect1_backgroundBlur_1753_6487"/>
<feBlend mode="normal" in="SourceGraphic" in2="effect1_backgroundBlur_1753_6487" result="shape"/>
</filter>
<linearGradient id="paint0_linear_1753_6487" x1="22.3323" y1="30.6656" x2="82.0378" y2="78.2683" gradientUnits="userSpaceOnUse">
<stop offset="0.188941" stop-color="#E7F0FF" stop-opacity="0.523483"/>
<stop offset="0.526042" stop-color="#88A4FF"/>
<stop offset="1" stop-color="#B4D2FF" stop-opacity="0.1"/>
</linearGradient>
<radialGradient id="paint1_radial_1753_6487" cx="0" cy="0" r="1" gradientUnits="userSpaceOnUse" gradientTransform="translate(22.7624 87.7355) rotate(-42.1008) scale(51.7813 86.1025)">
<stop stop-color="white"/>
<stop offset="1" stop-color="white" stop-opacity="0"/>
</radialGradient>
<linearGradient id="paint2_linear_1753_6487" x1="41.318" y1="8.27562" x2="71.6297" y2="22.2522" gradientUnits="userSpaceOnUse">
<stop offset="0.188941" stop-color="#E7F0FF" stop-opacity="0.523483"/>
<stop offset="0.526042" stop-color="#88A4FF"/>
<stop offset="1" stop-color="#B4D2FF" stop-opacity="0.1"/>
</linearGradient>
<radialGradient id="paint3_radial_1753_6487" cx="0" cy="0" r="1" gradientUnits="userSpaceOnUse" gradientTransform="translate(41.4798 45.4166) rotate(-57.3795) scale(26.8245 40.7122)">
<stop stop-color="white"/>
<stop offset="1" stop-color="white" stop-opacity="0"/>
</radialGradient>
<clipPath id="clip0_1753_6487">
<rect width="80" height="80" fill="white" transform="translate(10 9.59814)"/>
</clipPath>
</defs>
</svg>
