<svg width="161" height="69" viewBox="0 0 161 69" fill="none" xmlns="http://www.w3.org/2000/svg">
<g id="404">
<path d="M28.2129 18.768C25.7596 21.9908 23.1491 25.4979 20.3813 29.2895C17.6134 33.081 15.2859 36.9673 13.3988 40.9484H28.2129V18.768ZM41.9892 1.51661V40.9484H48.9716V52.5125H41.9892V67.2046H28.2129V52.5125H0V42.1806C1.38391 39.4002 3.1138 36.2722 5.18967 32.7966C7.26554 29.2579 9.56158 25.6559 12.0778 21.9908C14.6569 18.2625 17.3618 14.6289 20.1925 11.0902C23.0233 7.55144 25.854 4.36025 28.6847 1.51661H41.9892Z" fill="white"/>
<path d="M104.016 34.2184C104.016 45.277 101.909 53.7763 97.6941 59.7164C93.5424 65.5932 87.7865 68.5316 80.4266 68.5316C73.0667 68.5316 67.2795 65.5932 63.0648 59.7164C58.9131 53.7763 56.8372 45.277 56.8372 34.2184C56.8372 28.7207 57.3719 23.8549 58.4413 19.6211C59.5736 15.3872 61.1777 11.8169 63.2535 8.91006C65.3294 6.00323 67.8142 3.79152 70.7078 2.27491C73.6014 0.758303 76.841 0 80.4266 0C87.7865 0 93.5424 2.97002 97.6941 8.91006C101.909 14.7869 104.016 23.223 104.016 34.2184ZM89.6737 34.2184C89.6737 30.9324 89.5164 27.9624 89.2019 25.3084C88.8874 22.5911 88.3841 20.253 87.6922 18.2941C87.0002 16.3351 86.0566 14.8185 84.8614 13.7442C83.6662 12.67 82.188 12.1329 80.4266 12.1329C78.6653 12.1329 77.187 12.67 75.9918 13.7442C74.8595 14.8185 73.916 16.3351 73.1611 18.2941C72.4691 20.253 71.9659 22.5911 71.6514 25.3084C71.3368 27.9624 71.1796 30.9324 71.1796 34.2184C71.1796 37.5044 71.3368 40.506 71.6514 43.2233C71.9659 45.9405 72.4691 48.2786 73.1611 50.2376C73.916 52.1965 74.8595 53.7131 75.9918 54.7874C77.187 55.8616 78.6653 56.3988 80.4266 56.3988C82.188 56.3988 83.6662 55.8616 84.8614 54.7874C86.0566 53.7131 87.0002 52.1965 87.6922 50.2376C88.3841 48.2786 88.8874 45.9405 89.2019 43.2233C89.5164 40.506 89.6737 37.5044 89.6737 34.2184Z" fill="white"/>
<path d="M139.245 18.768C136.792 21.9908 134.182 25.4979 131.414 29.2895C128.646 33.081 126.318 36.9673 124.431 40.9484H139.245V18.768ZM153.022 1.51661V40.9484H160.004V52.5125H153.022V67.2046H139.245V52.5125H111.032V42.1806C112.416 39.4002 114.146 36.2722 116.222 32.7966C118.298 29.2579 120.594 25.6559 123.11 21.9908C125.689 18.2625 128.394 14.6289 131.225 11.0902C134.056 7.55144 136.886 4.36025 139.717 1.51661H153.022Z" fill="white"/>
</g>
</svg>
