<svg width="317" height="354" viewBox="0 0 317 354" fill="none" xmlns="http://www.w3.org/2000/svg">
<g clip-path="url(#clip0_2021_8133)">
<mask id="mask0_2021_8133" style="mask-type:alpha" maskUnits="userSpaceOnUse" x="-883" y="-456" width="1200" height="810">
<rect x="-883" y="-456" width="1200" height="810" fill="url(#paint0_linear_2021_8133)"/>
</mask>
<g mask="url(#mask0_2021_8133)">
<g opacity="0.31">
<path d="M5.92383 397.512L6.49931 369.094L11.0309 369.202C25.2372 344.947 47.7514 328.729 79.6166 319.831C110.079 311.327 143.994 310.537 176.759 309.82C192.979 309.461 208.264 309.102 222.219 307.811C244.266 305.765 260.09 301.783 273.505 294.929C282.964 290.086 290.589 283.771 296.199 276.164C301.414 269.06 304.795 260.987 306.198 252.16C309.614 230.847 301.307 207.74 283.971 190.302C274.62 180.901 263.471 172.577 251.638 163.751C229.268 147.066 206.106 129.808 195.173 104.189C188.124 87.6482 188.088 68.811 195.137 52.5212C201.611 37.5591 213.479 26.2567 228.549 20.6953C251.387 12.2992 278.577 9.96704 309.327 13.7704C335.006 16.9637 362.771 24.6421 387.551 35.4062L384.386 42.6541C341.696 24.1039 279.044 10.5411 231.282 28.1225C218.263 32.9305 208.013 42.69 202.402 55.6787C196.216 69.9591 196.252 86.5359 202.474 101.103C212.58 124.749 234.843 141.361 256.386 157.436C267.931 166.047 279.835 174.945 289.618 184.741C308.715 203.937 317.851 229.591 314.038 253.38C310.693 274.262 297.602 291.521 277.138 301.962C262.788 309.282 246.064 313.516 222.974 315.668C208.732 316.996 193.303 317.319 176.939 317.714C144.642 318.431 111.23 319.185 81.7386 327.437C65.9499 331.85 53.0024 337.914 42.1049 346.023C29.8408 355.137 20.5617 366.547 13.7643 380.863L5.92383 397.512Z" fill="white" fill-opacity="0.2"/>
</g>
<path d="M0.207031 397.512L0.782467 369.094L5.31412 369.202C19.5204 344.947 42.0346 328.729 73.8999 319.831C104.362 311.327 138.278 310.537 171.042 309.82C187.262 309.461 202.548 309.102 216.502 307.811C238.549 305.765 254.374 301.783 267.789 294.929C277.247 290.086 284.872 283.771 290.483 276.164C295.698 269.06 299.078 260.987 300.481 252.16C303.898 230.847 295.59 207.74 278.254 190.302C268.903 180.901 257.754 172.577 245.922 163.751C223.551 147.066 200.39 129.808 189.456 104.189C182.407 87.6482 182.371 68.811 189.42 52.5212C195.894 37.5591 207.763 26.2567 222.832 20.6953C245.67 12.2992 272.86 9.96704 303.61 13.7704C329.289 16.9637 357.054 24.6421 381.834 35.4062L378.669 42.6541C335.979 24.1039 273.327 10.5411 225.565 28.1225C212.546 32.9305 202.296 42.69 196.685 55.6787C190.499 69.9591 190.535 86.5359 196.757 101.103C206.863 124.749 229.126 141.361 250.669 157.436C262.214 166.047 274.118 174.945 283.901 184.741C302.999 203.937 312.134 229.591 308.321 253.38C304.977 274.262 291.885 291.521 271.421 301.962C257.071 309.282 240.347 313.516 217.257 315.668C203.015 316.996 187.586 317.319 171.222 317.714C138.925 318.431 105.513 319.185 76.0218 327.437C60.233 331.85 47.2855 337.914 36.3881 346.023C24.1239 355.137 14.8449 366.547 8.04743 380.863L0.207031 397.512Z" fill="#66FFD1"/>
</g>
</g>
<defs>
<linearGradient id="paint0_linear_2021_8133" x1="-883" y1="-51.5525" x2="317" y2="-51.5525" gradientUnits="userSpaceOnUse">
<stop stop-color="#D9D9D9" stop-opacity="0"/>
<stop offset="0.307292" stop-color="#D9D9D9" stop-opacity="0.942708"/>
<stop offset="0.78125" stop-color="#D9D9D9"/>
<stop offset="1" stop-color="#D9D9D9" stop-opacity="0"/>
</linearGradient>
<clipPath id="clip0_2021_8133">
<rect width="317" height="354" fill="white"/>
</clipPath>
</defs>
</svg>
