<svg width="842" height="306" viewBox="0 0 842 306" fill="none" xmlns="http://www.w3.org/2000/svg">
<g clip-path="url(#clip0_2021_8237)">
<mask id="mask0_2021_8237" style="mask-type:alpha" maskUnits="userSpaceOnUse" x="0" y="0" width="1200" height="810">
<rect width="1200" height="810" fill="url(#paint0_linear_2021_8237)"/>
</mask>
<g mask="url(#mask0_2021_8237)">
<g opacity="0.31">
<path d="M-1.80401 286.306L-7.73828 270.914C24.9182 258.355 56.0281 241.563 84.7644 221.004C113.501 200.409 139.396 176.369 161.73 149.494C167.017 143.143 172.268 136.47 177.375 129.975C198.307 103.352 219.958 75.7958 251.212 60.4031C279.696 46.3738 315.517 43.1087 357.633 50.7513C376.407 54.1599 394.965 59.2908 412.875 64.2423C427.693 68.3327 443.014 72.5666 458.192 75.724C487.072 81.752 517.247 84.2277 547.817 83.0437C577.345 81.8955 607.376 77.3745 637.155 69.5885C694.879 54.4828 751.344 27.0702 800.437 -9.67139L810.363 3.53261C759.581 41.5659 701.137 69.9473 641.363 85.5553C610.433 93.6284 579.179 98.3287 548.5 99.5128C516.563 100.733 485.058 98.1852 454.847 91.8702C439.166 88.6051 423.557 84.2995 408.488 80.1373C390.901 75.2935 372.738 70.2702 354.684 67.0051C316.129 60.0084 283.76 62.7712 258.549 75.2217C230.639 88.9639 210.175 114.977 190.394 140.129C185.215 146.696 179.892 153.513 174.462 160.007C151.228 187.958 124.29 212.967 94.4031 234.387C64.5519 255.808 32.1832 273.246 -1.80401 286.306Z" fill="white" fill-opacity="0.2"/>
</g>
<path d="M-1.80401 279.131L-7.73828 263.738C24.9182 251.18 56.0281 234.388 84.7644 213.828C113.501 193.233 139.396 169.193 161.73 142.318C167.017 135.968 172.268 129.294 177.375 122.799C198.307 96.1762 219.958 68.6559 251.212 53.2273C279.696 39.1981 315.517 35.9688 357.633 43.6114C376.407 47.02 394.965 52.1509 412.875 57.1024C427.693 61.1928 443.014 65.4267 458.192 68.5842C487.072 74.6121 517.247 77.0878 547.817 75.9038C577.345 74.7556 607.376 70.2347 637.155 62.4486C694.879 47.3429 751.344 19.9303 800.437 -16.8113L810.363 -3.60728C759.581 34.426 701.137 62.8074 641.363 78.4154C610.433 86.4885 579.179 91.1888 548.5 92.3729C516.563 93.5928 485.058 91.0453 454.847 84.7304C439.166 81.4652 423.557 77.1596 408.488 72.9975C390.901 68.1177 372.738 63.0945 354.684 59.8293C316.129 52.8326 283.76 55.5954 258.549 68.046C230.639 81.7882 210.175 107.801 190.394 132.99C185.215 139.556 179.892 146.373 174.462 152.867C151.228 180.818 124.29 205.827 94.4031 227.247C64.5519 248.632 32.1832 266.106 -1.80401 279.131Z" fill="#66FFD1"/>
</g>
</g>
<defs>
<linearGradient id="paint0_linear_2021_8237" x1="9.29286e-06" y1="404.447" x2="1200" y2="404.447" gradientUnits="userSpaceOnUse">
<stop stop-color="#D9D9D9" stop-opacity="0"/>
<stop offset="0.307292" stop-color="#D9D9D9" stop-opacity="0.942708"/>
<stop offset="0.78125" stop-color="#D9D9D9"/>
<stop offset="1" stop-color="#D9D9D9" stop-opacity="0"/>
</linearGradient>
<clipPath id="clip0_2021_8237">
<rect width="842" height="306" fill="white"/>
</clipPath>
</defs>
</svg>
