<svg width="288" height="287" viewBox="0 0 288 287" fill="none" xmlns="http://www.w3.org/2000/svg">
<path d="M0 385.512L0.573997 357.094L5.09433 357.202C19.2651 332.947 41.723 316.729 73.5086 307.831C103.895 299.327 137.726 298.537 170.408 297.82C186.588 297.461 201.835 297.102 215.754 295.811C237.746 293.765 253.531 289.783 266.913 282.929C276.348 278.086 283.953 271.771 289.55 264.164C294.752 257.06 298.124 248.987 299.523 240.16C302.931 218.847 294.644 195.74 277.352 178.302C268.025 168.901 256.903 160.577 245.1 151.751C222.786 135.066 199.682 117.808 188.776 92.1891C181.745 75.6482 181.709 56.811 188.74 40.5212C195.198 25.5591 207.037 14.2567 222.068 8.69526C244.849 0.299237 271.971 -2.03296 302.644 1.77036C328.259 4.96372 355.955 12.6421 380.673 23.4062L377.516 30.6541C334.932 12.1039 272.437 -1.45888 224.795 16.1225C211.808 20.9305 201.584 30.69 195.987 43.6787C189.816 57.9591 189.852 74.5359 196.059 89.1034C206.14 112.749 228.347 129.361 249.836 145.436C261.352 154.047 273.227 162.945 282.985 172.741C302.035 191.937 311.147 217.591 307.344 241.38C304.008 262.262 290.949 279.521 270.536 289.962C256.222 297.282 239.54 301.516 216.508 303.668C202.301 304.996 186.911 305.319 170.587 305.714C138.371 306.431 105.043 307.185 75.6252 315.437C59.8759 319.85 46.9608 325.914 36.0906 334.023C23.8571 343.137 14.6012 354.547 7.8208 368.863L0 385.512Z" fill="#66FFD1"/>
</svg>
