<svg width="283" height="177" viewBox="0 0 283 177" fill="none" xmlns="http://www.w3.org/2000/svg">
<g clip-path="url(#clip0_2021_8400)">
<g filter="url(#filter0_b_2021_8400)">
<path d="M0.148438 34.4167C0.148438 15.4089 24.7597 0 55.1192 0H227.884C258.244 0 282.855 15.4089 282.855 34.4167V142.583C282.855 161.591 258.244 177 227.884 177H55.1192C24.7597 177 0.148438 161.591 0.148438 142.583V34.4167Z" fill="#00FFC2" fill-opacity="0.05"/>
</g>
<g filter="url(#filter1_b_2021_8400)">
<path fill-rule="evenodd" clip-rule="evenodd" d="M227.884 0.983333H55.1192C25.6271 0.983333 1.71903 15.9519 1.71903 34.4167V142.583C1.71903 161.048 25.6271 176.017 55.1192 176.017H227.884C257.377 176.017 281.285 161.048 281.285 142.583V34.4167C281.285 15.9519 257.377 0.983333 227.884 0.983333ZM55.1192 0C24.7597 0 0.148438 15.4089 0.148438 34.4167V142.583C0.148438 161.591 24.7597 177 55.1192 177H227.884C258.244 177 282.855 161.591 282.855 142.583V34.4167C282.855 15.4089 258.244 0 227.884 0H55.1192Z" fill="url(#paint0_linear_2021_8400)"/>
<path fill-rule="evenodd" clip-rule="evenodd" d="M227.884 0.983333H55.1192C25.6271 0.983333 1.71903 15.9519 1.71903 34.4167V142.583C1.71903 161.048 25.6271 176.017 55.1192 176.017H227.884C257.377 176.017 281.285 161.048 281.285 142.583V34.4167C281.285 15.9519 257.377 0.983333 227.884 0.983333ZM55.1192 0C24.7597 0 0.148438 15.4089 0.148438 34.4167V142.583C0.148438 161.591 24.7597 177 55.1192 177H227.884C258.244 177 282.855 161.591 282.855 142.583V34.4167C282.855 15.4089 258.244 0 227.884 0H55.1192Z" fill="url(#paint1_radial_2021_8400)"/>
</g>
</g>
<defs>
<filter id="filter0_b_2021_8400" x="-29.8516" y="-30" width="342.707" height="237" filterUnits="userSpaceOnUse" color-interpolation-filters="sRGB">
<feFlood flood-opacity="0" result="BackgroundImageFix"/>
<feGaussianBlur in="BackgroundImageFix" stdDeviation="15"/>
<feComposite in2="SourceAlpha" operator="in" result="effect1_backgroundBlur_2021_8400"/>
<feBlend mode="normal" in="SourceGraphic" in2="effect1_backgroundBlur_2021_8400" result="shape"/>
</filter>
<filter id="filter1_b_2021_8400" x="-29.8516" y="-30" width="342.707" height="237" filterUnits="userSpaceOnUse" color-interpolation-filters="sRGB">
<feFlood flood-opacity="0" result="BackgroundImageFix"/>
<feGaussianBlur in="BackgroundImageFix" stdDeviation="15"/>
<feComposite in2="SourceAlpha" operator="in" result="effect1_backgroundBlur_2021_8400"/>
<feBlend mode="normal" in="SourceGraphic" in2="effect1_backgroundBlur_2021_8400" result="shape"/>
</filter>
<linearGradient id="paint0_linear_2021_8400" x1="40.8332" y1="-6.32143" x2="230.881" y2="170.909" gradientUnits="userSpaceOnUse">
<stop offset="0.188941" stop-color="#E7F0FF" stop-opacity="0.523483"/>
<stop offset="0.526042" stop-color="#88A4FF"/>
<stop offset="1" stop-color="#B4D2FF" stop-opacity="0.1"/>
</linearGradient>
<radialGradient id="paint1_radial_2021_8400" cx="0" cy="0" r="1" gradientUnits="userSpaceOnUse" gradientTransform="translate(42.398 171.205) rotate(-37.6872) scale(176.643 285.669)">
<stop stop-color="white"/>
<stop offset="1" stop-color="white" stop-opacity="0"/>
</radialGradient>
<clipPath id="clip0_2021_8400">
<rect width="282.707" height="177" fill="white" transform="translate(0.148438)"/>
</clipPath>
</defs>
</svg>
