<svg width="516" height="360" viewBox="0 0 516 360" fill="none" xmlns="http://www.w3.org/2000/svg">
<g clip-path="url(#clip0_2021_8356)">
<mask id="mask0_2021_8356" style="mask-type:alpha" maskUnits="userSpaceOnUse" x="-707" y="-190" width="1200" height="810">
<rect x="-707" y="-190" width="1200" height="810" fill="url(#paint0_linear_2021_8356)"/>
</mask>
<g mask="url(#mask0_2021_8356)">
<path opacity="0.31" d="M795.09 344.169C773.439 344.277 745.17 329.781 730.856 297.058C713.197 256.692 722.404 213.241 731.252 171.189C731.935 167.996 732.618 164.767 733.266 161.609L733.769 159.169C743.839 110.551 754.269 60.2471 754.449 9.61975C754.557 -21.2733 748.371 -52.8122 737.078 -79.1485C723.555 -110.687 703.019 -133.902 677.699 -146.388C653.926 -158.085 627.24 -159.198 606.308 -149.438C587.678 -140.719 575.018 -124.645 569.768 -102.937C561.064 -67.0567 568.185 -29.5976 575.019 6.64168C575.918 11.3061 576.781 15.8988 577.608 20.4915C578.076 22.9673 578.507 25.4789 578.975 27.9905C588.577 80.2325 599.475 139.435 564.517 183.03C553.835 196.377 541.859 203.302 527.904 204.271C491.471 206.783 449.859 167.386 416.448 135.739C403.428 123.397 392.171 112.74 382.604 105.851C322.291 62.2205 268.343 48.0836 217.883 62.7587L213.747 53.8604L194.866 62.5434L191.053 54.255C189.615 51.0975 185.874 49.7341 182.709 51.1693L134.408 73.4152L133.473 71.37C132.718 69.7554 130.776 69.0378 129.157 69.7912L81.5032 91.7501C79.8848 92.5036 79.1655 94.4411 79.9207 96.0557L80.8558 98.1009L59.9241 107.753C56.7591 109.188 55.3924 112.92 56.831 116.077L63.1249 129.64L15.2552 151.814C11.4069 153.572 9.71651 158.129 11.5148 161.968C13.2771 165.807 17.8447 167.494 21.693 165.7L69.5627 143.561L75.9286 157.304C77.3672 160.461 81.1076 161.825 84.2725 160.389L105.204 150.738L106.139 152.783C106.895 154.397 108.837 155.115 110.455 154.361L158.109 132.403C159.728 131.649 160.447 129.712 159.692 128.097L158.757 126.052L207.058 103.806C210.223 102.371 211.59 98.6391 210.151 95.4817L207.274 89.3102L206.303 87.2292L225.184 78.5461L220.581 68.5713C268.774 54.9368 320.636 68.8225 378.828 110.982C388.035 117.656 399.148 128.169 412.024 140.332C446.371 172.84 489.098 213.277 528.336 210.586C543.945 209.51 557.791 201.58 569.516 186.977C606.272 141.122 595.123 80.376 585.269 26.8065C584.801 24.2949 584.333 21.8191 583.902 19.3434C583.075 14.7507 582.176 10.1221 581.312 5.45763C574.587 -30.1358 567.61 -66.9132 575.99 -101.43C580.773 -121.2 592.21 -135.768 609.042 -143.626C628.247 -152.596 652.847 -151.483 674.894 -140.648C698.847 -128.879 718.34 -106.741 731.252 -76.6368C742.221 -51.0541 748.191 -20.4122 748.119 9.61975C747.94 59.6012 737.581 109.583 727.583 157.914L727.08 160.353C726.432 163.547 725.749 166.704 725.066 169.934C716.002 212.954 706.615 257.41 725.066 299.641C731.216 313.706 741.142 326.444 753.011 335.558C765.958 345.497 780.56 350.663 795.162 350.592L795.09 344.169Z" fill="white" fill-opacity="0.2"/>
<path d="M191.882 41.6257L210.979 82.8882C212.418 86.0457 211.051 89.7772 207.886 91.2124L85.101 147.76C81.936 149.195 78.1956 147.832 76.757 144.674L57.6595 103.412C56.2209 100.254 57.5875 96.5227 60.7525 95.0875L183.538 38.54C186.703 37.1047 190.443 38.4682 191.882 41.6257Z" fill="#00FFB2"/>
<mask id="mask1_2021_8356" style="mask-type:luminance" maskUnits="userSpaceOnUse" x="57" y="37" width="155" height="112">
<path d="M191.882 41.6257L210.979 82.8882C212.418 86.0457 211.051 89.7772 207.886 91.2124L85.101 147.76C81.936 149.195 78.1956 147.832 76.757 144.674L57.6595 103.412C56.2209 100.254 57.5875 96.5227 60.7525 95.0875L183.538 38.54C186.703 37.1047 190.443 38.4682 191.882 41.6257Z" fill="white"/>
</mask>
<g mask="url(#mask1_2021_8356)">
<path opacity="0.6" d="M203.715 62.257L58.5232 127.452L46.7266 91.2843L98.2648 52.964L196.953 25.946L203.715 62.257Z" fill="black"/>
</g>
<path d="M134.337 58.7762L160.592 115.503C161.347 117.118 160.628 119.055 159.009 119.809L111.355 141.768C109.737 142.521 107.795 141.804 107.04 140.189L80.785 83.462C80.0297 81.8474 80.749 79.9098 82.3674 79.1563L130.021 57.1975C131.64 56.4081 133.582 57.1257 134.337 58.7762Z" fill="#66FFD1"/>
<path d="M154.698 113.063C155.237 114.247 154.734 115.611 153.547 116.149L112.151 135.237C110.964 135.776 109.597 135.273 109.058 134.089C108.518 132.905 109.022 131.542 110.209 131.003L151.605 111.951C152.756 111.377 154.158 111.915 154.698 113.063Z" fill="black" fill-opacity="0.4"/>
<path d="M150.237 103.411C150.776 104.596 150.273 105.959 149.086 106.497L107.69 125.55C106.503 126.088 105.136 125.586 104.597 124.402C104.057 123.217 104.561 121.854 105.748 121.316L147.144 102.263C148.295 101.725 149.697 102.227 150.237 103.411Z" fill="black" fill-opacity="0.4"/>
<path d="M145.778 93.7596C146.317 94.9437 145.814 96.3071 144.627 96.8453L103.231 115.898C102.044 116.436 100.677 115.934 100.138 114.75C99.5984 113.566 100.102 112.202 101.289 111.664L142.685 92.6114C143.836 92.0732 145.238 92.5756 145.778 93.7596Z" fill="black" fill-opacity="0.4"/>
<path d="M141.282 84.1078C141.821 85.2919 141.318 86.6553 140.131 87.1936L98.7347 106.282C97.5479 106.82 96.1812 106.318 95.6417 105.134C95.1023 103.95 95.6058 102.586 96.7927 102.048L138.189 82.9955C139.376 82.4215 140.742 82.9238 141.282 84.1078Z" fill="black" fill-opacity="0.4"/>
<path d="M136.823 74.4559C137.362 75.64 136.859 77.0034 135.672 77.5416L94.2758 96.5941C93.0889 97.1324 91.7222 96.63 91.1828 95.446C90.6433 94.2619 91.1468 92.8985 92.3337 92.3603L133.73 73.3077C134.881 72.7695 136.283 73.2719 136.823 74.4559Z" fill="black" fill-opacity="0.4"/>
<path d="M132.362 64.8043C132.901 65.9884 132.398 67.3518 131.211 67.89L89.8148 86.9425C88.628 87.4807 87.2613 86.9784 86.7218 85.7944C86.1823 84.6103 86.6858 83.2468 87.8727 82.7086L129.269 63.6561C130.42 63.1179 131.822 63.6202 132.362 64.8043Z" fill="black" fill-opacity="0.4"/>
<path d="M64.0262 117.118L70.464 131.004L22.5583 153.07C18.71 154.828 14.1424 153.178 12.3801 149.339C10.6178 145.499 12.2722 140.943 16.1205 139.184L64.0262 117.118Z" fill="#66FFD1"/>
<path d="M195.724 49.9224L207.164 74.6475L226.037 65.9558L214.597 41.2308L195.724 49.9224Z" fill="#66FFD1"/>
<path d="M212.311 52.1381C264.604 34.2696 320.566 47.6889 383.433 93.2212C393 100.146 404.257 110.803 417.277 123.11C450.688 154.756 492.3 194.117 528.733 191.641C542.687 190.672 554.628 183.748 565.346 170.4C600.268 126.805 589.406 67.6026 579.804 15.3607C579.336 12.849 578.868 10.3374 578.437 7.86165C577.61 3.30482 576.747 -1.32375 575.847 -5.9882C568.978 -42.2274 561.893 -79.7225 570.596 -115.567C575.847 -137.275 588.507 -153.349 607.137 -162.068C628.069 -171.828 654.755 -170.715 678.528 -159.018C703.848 -146.568 724.42 -123.317 737.907 -91.7783C749.2 -65.4062 755.386 -33.9032 755.278 -3.01013C755.098 47.6172 744.668 97.9215 734.598 146.54L734.095 148.979C733.447 152.173 732.764 155.366 732.081 158.559C723.233 200.575 714.026 244.027 731.685 284.428C745.999 317.151 774.232 331.683 795.919 331.539L795.955 337.926C781.317 337.998 766.751 332.795 753.804 322.892C741.935 313.778 732.009 301.041 725.858 286.976C707.408 244.744 716.795 200.253 725.858 157.268C726.542 154.074 727.225 150.881 727.873 147.688L728.376 145.248C738.41 96.9169 748.768 46.9354 748.912 -3.04602C749.02 -33.0779 743.014 -63.7198 732.045 -89.3026C719.133 -119.406 699.64 -141.545 675.687 -153.313C653.64 -164.149 629.04 -165.261 609.835 -156.291C593.003 -148.434 581.602 -133.83 576.782 -114.096C568.403 -79.579 575.38 -42.7657 582.105 -7.20815C583.004 -2.54369 583.868 2.08488 584.695 6.67758C585.162 9.15334 585.594 11.6291 586.062 14.1407C595.916 67.7102 607.065 128.456 570.309 174.311C558.584 188.914 544.737 196.88 529.129 197.92C489.89 200.611 447.164 160.138 412.817 127.666C399.941 115.503 388.828 104.954 379.621 98.3162C318.552 54.1115 264.496 40.9793 214.325 58.1301L212.311 52.1381Z" fill="#66FFD1"/>
</g>
</g>
<defs>
<linearGradient id="paint0_linear_2021_8356" x1="-707" y1="214.447" x2="493" y2="214.447" gradientUnits="userSpaceOnUse">
<stop stop-color="#D9D9D9" stop-opacity="0"/>
<stop offset="0.307292" stop-color="#D9D9D9" stop-opacity="0.942708"/>
<stop offset="0.78125" stop-color="#D9D9D9"/>
<stop offset="1" stop-color="#D9D9D9" stop-opacity="0"/>
</linearGradient>
<clipPath id="clip0_2021_8356">
<rect width="516" height="360" fill="white"/>
</clipPath>
</defs>
</svg>
