<svg width="486" height="360" viewBox="0 0 486 360" fill="none" xmlns="http://www.w3.org/2000/svg">
<g clip-path="url(#clip0_2021_8312)">
<mask id="mask0_2021_8312" style="mask-type:alpha" maskUnits="userSpaceOnUse" x="0" y="-190" width="1200" height="810">
<rect y="-190" width="1200" height="810" fill="url(#paint0_linear_2021_8312)"/>
</mask>
<g mask="url(#mask0_2021_8312)">
<path opacity="0.31" d="M437.913 249.408L473.267 234.41L455.069 191.712L419.715 206.71L418.816 204.629C417.305 201.077 413.205 199.427 409.644 200.934L402.847 203.804L402.343 202.62C401.768 201.221 400.15 200.611 398.783 201.185L390.619 204.629C389.216 205.203 388.605 206.818 389.18 208.181L389.684 209.366L385.835 211.016L385.332 209.832C384.756 208.433 383.138 207.823 381.771 208.397L373.607 211.841C372.205 212.415 371.593 214.03 372.169 215.393L372.672 216.578L324.766 236.922C321.206 238.429 319.552 242.519 321.062 246.071L325.558 256.584L309.661 263.33L312.466 269.896C272.725 286.939 228.056 305.704 184.718 306.924C166.16 307.463 130.158 300.609 97.5019 248.762C88.5826 234.589 81.3535 219.448 75.4553 206.495C74.4482 204.235 73.4412 201.831 72.3982 199.283C67.3271 187.048 61.6086 173.162 48.2295 166.417C29.096 156.801 12.0485 167.601 -1.69025 176.284C-3.34467 177.324 -4.99905 178.365 -6.61749 179.37C-11.0052 182.025 -15.5009 184.931 -19.8527 187.73C-42.7986 202.476 -66.5356 217.726 -92.2508 215.178C-115.484 212.882 -136.2 197.561 -147.709 174.203C-170.727 127.451 -166.879 80.1242 -136.02 29.6046C-108.831 -14.959 -65.7084 -54.3915 -27.6572 -89.1956C-21.9027 -94.47 -16.472 -99.4215 -11.1491 -104.373C-0.323578 -114.42 11.8687 -126.368 19.6731 -141.33C28.4486 -158.301 29.8513 -176.6 23.4854 -191.419C18.0187 -204.121 6.54581 -214.956 -10.6096 -223.604C-38.3388 -237.633 -67.9023 -243.517 -98.4368 -241.149C-124.907 -239.104 -152.924 -230.744 -181.696 -216.284C-233.127 -190.45 -279.054 -150.121 -321.026 -110.365L-350.877 -82.0912L-341.598 -72.3318L-311.747 -100.606C-270.531 -139.679 -225.502 -179.255 -175.654 -204.3C-148.464 -217.97 -122.138 -225.864 -97.4298 -227.766C-69.3769 -229.919 -42.2231 -224.501 -16.7237 -211.62C-2.48148 -204.408 6.86948 -195.832 11.0774 -186.109C15.7889 -175.165 14.4941 -160.741 7.58878 -147.501C0.791351 -134.441 -10.4658 -123.461 -20.4641 -114.204C-25.751 -109.289 -31.1818 -104.337 -36.9002 -99.0986C-75.5988 -63.6846 -119.476 -23.5344 -147.673 22.6438C-163.318 48.2983 -172.309 72.6611 -175.187 97.2033C-178.424 125.118 -173.316 153.033 -159.937 180.195C-157.348 185.469 -154.363 190.385 -151.018 194.906C-136.812 214.138 -116.276 226.409 -93.7253 228.633C-63.2987 231.647 -36.3967 214.353 -12.6597 199.104C-8.164 196.233 -3.92007 193.506 0.323822 190.923C2.01419 189.882 3.70456 188.806 5.46686 187.73C20.1407 178.437 30.6425 172.768 42.0435 178.508C50.9269 182.993 55.4586 193.901 59.8104 204.486C60.8534 207.033 61.9323 209.653 63.0832 212.128C69.1613 225.476 76.6421 241.156 85.993 255.974C101.53 280.66 135.086 321.851 185.041 320.415C230.897 319.124 276.861 299.82 317.681 282.31L320.487 288.912L336.383 282.167L340.987 292.967C342.497 296.519 346.597 298.17 350.158 296.663L398.064 276.354L398.567 277.538C399.143 278.938 400.761 279.548 402.128 278.974L410.292 275.529C411.694 274.955 412.306 273.34 411.73 271.977L411.227 270.793L415.075 269.142L415.579 270.326C416.154 271.726 417.773 272.336 419.139 271.762L427.303 268.317C428.706 267.743 429.317 266.128 428.742 264.765L428.238 263.581L435.036 260.71C438.596 259.203 440.251 255.113 438.74 251.561L437.913 249.408Z" fill="black"/>
<path d="M417.632 257.122C418.208 258.522 419.826 259.132 421.193 258.557L429.357 255.113C430.76 254.539 431.371 252.924 430.795 251.561L430.292 250.377L437.089 247.506C440.65 245.999 442.304 241.909 440.794 238.357L420.797 191.461C419.287 187.909 415.187 186.258 411.626 187.765L404.829 190.636L404.325 189.452C403.75 188.052 402.131 187.442 400.764 188.017L392.6 191.461C391.198 192.035 390.586 193.65 391.162 195.013L391.665 196.197L387.817 197.848L387.313 196.664C386.738 195.264 385.12 194.654 383.753 195.229L375.589 198.673C374.186 199.247 373.575 200.862 374.15 202.225L374.654 203.409L326.748 223.718C323.187 225.225 321.533 229.315 323.044 232.867L343.04 279.763C344.551 283.315 348.651 284.965 352.211 283.459L400.117 263.15L400.621 264.334C401.196 265.734 402.814 266.344 404.181 265.769L412.345 262.325C413.748 261.751 414.359 260.136 413.784 258.773L413.28 257.589L417.129 255.938L417.632 257.122Z" fill="#00FFB2"/>
<mask id="mask1_2021_8312" style="mask-type:luminance" maskUnits="userSpaceOnUse" x="322" y="187" width="120" height="98">
<path d="M417.632 257.122C418.208 258.522 419.826 259.132 421.193 258.557L429.357 255.113C430.76 254.539 431.371 252.924 430.795 251.561L430.292 250.377L437.089 247.506C440.65 245.999 442.304 241.909 440.794 238.357L420.797 191.461C419.287 187.909 415.187 186.258 411.626 187.765L404.829 190.636L404.325 189.452C403.75 188.052 402.131 187.442 400.764 188.017L392.6 191.461C391.198 192.035 390.586 193.65 391.162 195.013L391.665 196.197L387.817 197.848L387.313 196.664C386.738 195.264 385.12 194.654 383.753 195.229L375.589 198.673C374.186 199.247 373.575 200.862 374.15 202.225L374.654 203.409L326.748 223.718C323.187 225.225 321.533 229.315 323.044 232.867L343.04 279.763C344.551 283.315 348.651 284.965 352.211 283.459L400.117 263.15L400.621 264.334C401.196 265.734 402.814 266.344 404.181 265.769L412.345 262.325C413.748 261.751 414.359 260.136 413.784 258.773L413.28 257.589L417.129 255.938L417.632 257.122Z" fill="white"/>
</mask>
<g mask="url(#mask1_2021_8312)">
<path opacity="0.6" d="M332.322 256.118L437.556 211.841L417.596 174.597L311.498 221.062L321.065 246.071L332.322 256.118Z" fill="black"/>
</g>
<path d="M475.249 221.265L457.053 178.569L421.703 193.564L439.9 236.26L475.249 221.265Z" fill="#66FFD1"/>
<path d="M417.115 255.993L391.656 196.258L387.817 197.887L413.275 257.621L417.115 255.993Z" fill="#66FFD1"/>
<path d="M337.981 269.378L327.088 243.82L309.976 251.079L320.868 276.637L337.981 269.378Z" fill="#66FFD1"/>
<path d="M-150.658 182.599C-154.003 178.078 -156.988 173.162 -159.577 167.888C-172.92 140.762 -178.063 112.847 -174.826 84.8965C-171.985 60.3542 -162.994 35.9556 -147.313 10.3369C-119.116 -35.8412 -75.2386 -75.9914 -36.54 -111.405C-30.7856 -116.644 -25.3908 -121.595 -20.1039 -126.511C-10.1056 -135.768 1.1156 -146.784 7.94897 -159.808C14.8543 -173.012 16.1491 -187.472 11.4376 -198.415C7.26566 -208.139 -2.0853 -216.714 -16.3635 -223.926C-41.8629 -236.808 -69.0167 -242.225 -97.0696 -240.073C-121.778 -238.171 -148.104 -230.277 -175.294 -216.607C-225.178 -191.562 -270.206 -151.986 -311.423 -112.912L-341.274 -84.6386L-350.553 -94.3981L-320.702 -122.672C-278.73 -162.463 -232.802 -202.793 -181.408 -228.627C-152.636 -243.087 -124.655 -251.447 -98.1485 -253.492C-67.614 -255.86 -38.0506 -249.94 -10.3214 -235.946C6.83408 -227.263 18.343 -216.427 23.8097 -203.726C30.1755 -188.871 28.7729 -170.608 19.8895 -153.601C12.085 -138.639 -0.107239 -126.69 -10.9328 -116.644C-16.2556 -111.692 -21.6864 -106.741 -27.4408 -101.467C-65.4921 -66.6625 -108.614 -27.194 -135.804 17.3336C-166.662 67.8891 -170.475 115.18 -147.493 161.932C-135.984 185.29 -115.268 200.611 -92.0345 202.907C-66.2833 205.455 -42.5822 190.206 -19.6364 175.459C-15.2845 172.66 -10.7889 169.754 -6.40112 167.099C-4.78271 166.094 -3.1283 165.053 -1.47391 164.013C12.2289 155.33 29.3123 144.494 48.4459 154.146C61.8609 160.891 67.5794 174.777 72.6505 187.012C73.6935 189.56 74.7005 191.964 75.7076 194.224C81.6059 207.177 88.8349 222.319 97.7543 236.491C130.411 288.339 166.412 295.192 184.97 294.654C229.459 293.398 275.387 273.663 315.92 256.226L321.782 253.714L327.105 266.093L321.242 268.604C279.595 286.509 232.444 306.781 185.33 308.109C135.41 309.544 101.854 268.353 86.2813 243.667C76.9304 228.849 69.4496 213.169 63.3715 199.822C62.2565 197.346 61.1776 194.727 60.0986 192.179C55.7468 181.63 51.2152 170.687 42.3318 166.202C30.8948 160.461 20.429 166.13 5.75513 175.423C4.02878 176.535 2.30246 177.612 0.612091 178.616C-3.63181 181.2 -7.87573 183.926 -12.3714 186.797C-36.1085 202.046 -63.0105 219.34 -93.4371 216.326C-115.951 214.138 -136.452 201.831 -150.658 182.599Z" fill="#66FFD1"/>
</g>
</g>
<defs>
<linearGradient id="paint0_linear_2021_8312" x1="9.29286e-06" y1="214.447" x2="1200" y2="214.447" gradientUnits="userSpaceOnUse">
<stop stop-color="#D9D9D9" stop-opacity="0"/>
<stop offset="0.307292" stop-color="#D9D9D9" stop-opacity="0.942708"/>
<stop offset="0.78125" stop-color="#D9D9D9"/>
<stop offset="1" stop-color="#D9D9D9" stop-opacity="0"/>
</linearGradient>
<clipPath id="clip0_2021_8312">
<rect width="486" height="360" fill="white"/>
</clipPath>
</defs>
</svg>
