<svg width="24" height="24" viewBox="0 0 24 24" fill="none" xmlns="http://www.w3.org/2000/svg">
<path fill-rule="evenodd" clip-rule="evenodd" d="M1.77375 0C0.794437 0 0 0.77025 0 1.71919V22.2814C0 23.2304 0.794531 24 1.77375 24H22.2262C23.2059 24 24 23.2303 24 22.2811V1.71919C24 0.77025 23.2059 0 22.2262 0H1.77375ZM7.29317 9.28002V20.0849H3.7018V9.28002H7.29317ZM7.52989 5.93849C7.52989 6.97536 6.75036 7.80505 5.49824 7.80505L5.47471 7.80496C4.26936 7.80496 3.49011 6.97527 3.49011 5.9384C3.49011 4.87799 4.29289 4.07146 5.52205 4.07146C6.75036 4.07146 7.50646 4.87799 7.52989 5.93849ZM12.8721 20.0849H9.28105C9.28105 20.0849 9.32811 10.294 9.28124 9.2804H12.8724V10.8098C13.3498 10.0737 14.2042 9.02671 16.1091 9.02671C18.4719 9.02671 20.2434 10.5711 20.2434 13.8897V20.0849H16.6524V14.3052C16.6524 12.8526 16.1324 11.8618 14.8332 11.8618C13.8409 11.8618 13.25 12.53 12.9905 13.1754C12.8956 13.4058 12.8721 13.7291 12.8721 14.0516V20.0849Z" fill="white"/>
</svg>
