<svg width="54" height="30" viewBox="0 0 54 30" fill="none" xmlns="http://www.w3.org/2000/svg">
<path d="M31.024 15.296C33.136 19.584 35.792 21.728 38.992 21.728C40.656 21.728 42 21.152 43.024 20C44.112 18.784 44.656 17.216 44.656 15.296C44.656 13.44 44.112 11.936 43.024 10.784C42 9.568 40.656 8.96 38.992 8.96C37.392 8.96 35.952 9.472 34.672 10.496C33.392 11.456 32.176 13.056 31.024 15.296ZM23.056 15.296C21.968 13.056 20.752 11.456 19.408 10.496C18.128 9.472 16.72 8.96 15.184 8.96C13.52 8.96 12.144 9.568 11.056 10.784C10.032 11.936 9.52 13.44 9.52 15.296C9.52 17.216 10.032 18.784 11.056 20C12.144 21.152 13.52 21.728 15.184 21.728C16.72 21.728 18.128 21.248 19.408 20.288C20.688 19.264 21.904 17.6 23.056 15.296ZM27.088 22.592C25.744 24.448 24.048 26.112 22 27.584C20.016 29.056 17.648 29.792 14.896 29.792C13.104 29.792 11.344 29.504 9.616 28.928C7.888 28.352 6.352 27.488 5.008 26.336C3.664 25.12 2.576 23.616 1.744 21.824C0.976 19.968 0.592 17.792 0.592 15.296C0.592 12.736 0.976 10.56 1.744 8.768C2.576 6.912 3.664 5.408 5.008 4.256C6.352 3.04 7.888 2.176 9.616 1.664C11.344 1.088 13.104 0.799998 14.896 0.799998C17.648 0.799998 20.016 1.568 22 3.104C24.048 4.576 25.744 6.24 27.088 8.096C28.432 6.24 30.096 4.576 32.08 3.104C34.128 1.568 36.528 0.799998 39.28 0.799998C41.072 0.799998 42.8 1.088 44.464 1.664C46.192 2.24 47.728 3.136 49.072 4.352C50.416 5.504 51.504 7.008 52.336 8.864C53.168 10.656 53.584 12.8 53.584 15.296C53.584 17.856 53.168 20.064 52.336 21.92C51.504 23.712 50.416 25.216 49.072 26.432C47.728 27.584 46.192 28.448 44.464 29.024C42.8 29.536 41.072 29.792 39.28 29.792C36.528 29.792 34.128 29.056 32.08 27.584C30.032 26.112 28.368 24.448 27.088 22.592Z" fill="white"/>
</svg>
