<svg width="154" height="36" viewBox="0 0 154 36" fill="none" xmlns="http://www.w3.org/2000/svg">
<path d="M125.313 18.002L122.202 27.3353L119.091 18.002H114.646L119.98 34.002H124.424L129.758 18.002H125.313Z" fill="white"/>
<path d="M81.8912 16.2469C82.1135 15.4469 82.4246 15.0025 83.0246 14.6691C83.3579 14.4914 83.8246 14.4469 84.3357 14.4469C84.7135 14.4469 85.1357 14.4914 85.6023 14.5802C86.0468 14.6691 86.3135 14.8025 86.6912 14.9802L87.5357 11.6247C87.1801 11.4691 86.8023 11.3136 86.1357 11.158C85.469 11.0025 84.7135 10.9136 83.9135 10.9136C81.7357 10.9136 80.0912 11.4914 78.9801 12.6469C77.869 13.8025 77.3135 15.358 77.3135 17.3358V34.0025H81.7579V21.7136V21.558H86.6468V18.0025H81.7579V17.358C81.7579 16.958 81.8024 16.5802 81.8912 16.2469Z" fill="white"/>
<path d="M51.4031 30.4474C52.1809 30.4474 52.7364 30.3807 53.0476 30.2251C53.3809 30.0696 53.5364 29.7807 53.5364 29.3363C53.5364 28.9807 53.3364 28.7585 52.9142 28.4918C52.492 28.2251 51.8476 27.9363 51.0031 27.6029C50.3364 27.3585 49.7365 27.0918 49.1809 26.8251C48.6476 26.5585 48.1809 26.2251 47.8031 25.8474C47.4253 25.4696 47.1365 25.0251 46.9142 24.514C46.7142 24.0029 46.6031 23.3585 46.6031 22.6474C46.6031 21.2251 47.1365 20.0918 48.1809 19.2696C49.2253 18.4474 50.6698 18.0251 52.492 18.0251C53.4031 18.0251 54.2698 18.114 55.1142 18.2696C55.9587 18.4251 56.6253 18.6029 57.1142 18.8029L56.3809 22.2251C55.892 22.0474 55.3587 21.8918 54.7587 21.7585C54.1809 21.6251 53.5364 21.5585 52.8031 21.5585C51.4698 21.5585 50.8031 21.8474 50.8031 22.6029C50.8031 22.7807 50.8253 22.9363 50.892 23.0696C50.9587 23.2029 51.0698 23.3363 51.2253 23.4696C51.4031 23.6029 51.6253 23.7363 51.9142 23.8696C52.2031 24.0251 52.5809 24.1807 53.0476 24.3585C53.9809 24.714 54.7587 25.0474 55.3587 25.4029C55.9587 25.7363 56.4475 26.114 56.8031 26.514C57.1587 26.914 57.4031 27.3363 57.5364 27.8251C57.6698 28.314 57.7587 28.8696 57.7587 29.4918C57.7587 30.9807 57.2031 32.114 56.092 32.8918C54.9809 33.6696 53.4031 34.0474 51.3809 34.0474C50.0476 34.0474 48.9365 33.9363 48.0476 33.6918C47.1587 33.4696 46.5587 33.2696 46.2031 33.114L46.9142 29.6251C47.6476 29.914 48.3809 30.1363 49.1365 30.314C49.9142 30.4251 50.6698 30.4474 51.4031 30.4474Z" fill="white"/>
<path d="M106.514 30.4474C107.292 30.4474 107.848 30.3807 108.159 30.2251C108.492 30.0696 108.648 29.7807 108.648 29.3363C108.648 28.9807 108.448 28.7585 108.026 28.4918C107.603 28.2251 106.959 27.9363 106.114 27.6029C105.448 27.3585 104.848 27.0918 104.292 26.8251C103.759 26.5585 103.292 26.2251 102.914 25.8474C102.537 25.4696 102.248 25.0251 102.026 24.514C101.826 24.0029 101.714 23.3585 101.714 22.6474C101.714 21.2251 102.248 20.0918 103.292 19.2696C104.337 18.4474 105.781 18.0251 107.603 18.0251C108.514 18.0251 109.381 18.114 110.226 18.2696C111.07 18.4251 111.737 18.6029 112.226 18.8029L111.492 22.2251C111.003 22.0474 110.47 21.8918 109.87 21.7585C109.292 21.6251 108.648 21.5585 107.914 21.5585C106.581 21.5585 105.914 21.8474 105.914 22.6029C105.914 22.7807 105.937 22.9363 106.003 23.0696C106.07 23.2029 106.181 23.3363 106.337 23.4696C106.514 23.6029 106.737 23.7363 107.026 23.8696C107.314 24.0251 107.692 24.1807 108.159 24.3585C109.092 24.714 109.87 25.0474 110.47 25.4029C111.07 25.7363 111.559 26.114 111.914 26.514C112.27 26.914 112.514 27.3363 112.648 27.8251C112.781 28.314 112.87 28.8696 112.87 29.4918C112.87 30.9807 112.314 32.114 111.203 32.8918C110.092 33.6696 108.514 34.0474 106.492 34.0474C105.159 34.0474 104.048 33.9363 103.159 33.6918C102.27 33.4474 101.67 33.2696 101.314 33.114L102.026 29.6251C102.759 29.914 103.492 30.1363 104.248 30.314C105.026 30.4251 105.781 30.4474 106.514 30.4474Z" fill="white"/>
<path d="M136.869 18.002H132.425V34.002H136.869V18.002Z" fill="#00FFB2"/>
<path d="M67.0917 18.002C62.9139 18.002 59.5361 21.5797 59.5361 26.002C59.5361 30.4242 62.9139 34.002 67.0917 34.002C71.2694 34.002 74.6472 30.4242 74.6472 26.002C74.6472 21.5797 71.2694 18.002 67.0917 18.002ZM67.0917 30.4464C65.3806 30.4464 63.9806 28.4686 63.9806 26.002C63.9806 23.5575 65.3806 21.5575 67.0917 21.5575C68.8028 21.5575 70.2028 23.5575 70.2028 26.002C70.2028 28.4686 68.825 30.4464 67.0917 30.4464Z" fill="white"/>
<path d="M134.675 9.71136L131.752 12.634L134.675 15.5567L137.597 12.634L134.675 9.71136Z" fill="#00FFB2"/>
<path d="M150.004 29.8689C149.604 30.0245 149.027 30.1356 148.538 30.2245C148.049 30.3134 147.56 30.3578 147.115 30.3578C146.16 30.3578 145.804 30.2245 145.315 29.7134C144.893 29.2689 144.849 28.2912 144.849 27.38V22.0245V21.5578H149.738V18.0023H144.849V13.7134L140.404 18.0023V27.4467C140.404 28.4245 140.493 29.3356 140.671 30.1356C140.849 30.9356 141.182 31.6245 141.649 32.2023C142.115 32.78 142.738 33.2245 143.493 33.5356C144.271 33.8467 145.249 34.0023 146.404 34.0023C147.338 34.0023 148.115 33.9356 148.738 33.78C149.382 33.6245 150.093 33.4467 150.604 33.2245L150.004 29.8689Z" fill="#00FFB2"/>
<path d="M98.2689 29.8689C97.8689 30.0245 97.2911 30.1356 96.8023 30.2245C96.3134 30.3134 95.8245 30.3578 95.38 30.3578C94.4245 30.3578 94.0689 30.2245 93.58 29.7134C93.1578 29.2689 93.1134 28.2912 93.1134 27.38V22.0245V21.5578H98.0023V18.0023H93.1134V13.7134L88.6689 18.0023V27.4467C88.6689 28.4245 88.7578 29.3356 88.9356 30.1356C89.1134 30.9356 89.4467 31.6245 89.9134 32.2023C90.3801 32.78 91.0023 33.2245 91.7578 33.5356C92.5356 33.8467 93.5134 34.0023 94.6689 34.0023C95.6023 34.0023 96.38 33.9356 97.0023 33.78C97.6467 33.6245 98.3578 33.4467 98.8689 33.2245L98.2689 29.8689Z" fill="white"/>
<path d="M15.5766 7.3348L23.5099 14.0015V8.66813L15.5766 2.00146L7.62109 8.66813V14.0015L15.5766 7.3348Z" fill="#00FFB2"/>
<path d="M36.8885 25.2912L26.6885 34.0024V28.669L33.8885 22.7135L26.6885 16.669V11.3357L36.8885 19.9579V25.2912Z" fill="white"/>
<path d="M23.5114 27.3778L15.5781 34.0001V28.6667L20.3337 24.7112L23.5114 27.3778Z" fill="#00FFB2"/>
<path d="M12.4 34.0009V28.6676L5.19999 22.712L8.33332 19.9564L5.24444 17.3787L2 19.9564V25.2898L12.4 34.0009Z" fill="white"/>
<path d="M7.62109 14.0016L23.5099 27.3794V22.0461L10.7766 11.3572L7.62109 14.0016Z" fill="#00FFB2"/>
</svg>
