<svg width="384" height="196" viewBox="0 0 384 196" fill="none" xmlns="http://www.w3.org/2000/svg">
<g clip-path="url(#clip0_1859_6104)">
<g filter="url(#filter0_f_1859_6104)">
<circle cx="194.146" cy="220" r="113" fill="#00FFB2"/>
</g>
<g filter="url(#filter1_b_1859_6104)">
<rect x="-16" width="400" height="196" fill="white" fill-opacity="0.01"/>
</g>
<path opacity="0.2" d="M301.857 32C249.752 50.0894 229 104.857 229 148.571C229 192.286 254.426 225.214 287.286 236C258.143 188.518 258.143 148.571 301.857 119.429C294.5 139.141 301.857 177.714 316.429 192.286C322.715 186.446 331 171.525 331 163.143C360.143 192.286 339.202 216.085 331 236C346.856 227.853 374.714 206.857 374.714 163.143C374.714 119.429 345.571 104.857 345.571 61.1429C325.412 69.8747 316.429 90.2857 316.429 104.857C302.556 96.7473 287.286 64.7336 301.857 32Z" fill="#00FFB2"/>
</g>
<defs>
<filter id="filter0_f_1859_6104" x="-218.854" y="-193" width="826" height="826" filterUnits="userSpaceOnUse" color-interpolation-filters="sRGB">
<feFlood flood-opacity="0" result="BackgroundImageFix"/>
<feBlend mode="normal" in="SourceGraphic" in2="BackgroundImageFix" result="shape"/>
<feGaussianBlur stdDeviation="150" result="effect1_foregroundBlur_1859_6104"/>
</filter>
<filter id="filter1_b_1859_6104" x="-116" y="-100" width="600" height="396" filterUnits="userSpaceOnUse" color-interpolation-filters="sRGB">
<feFlood flood-opacity="0" result="BackgroundImageFix"/>
<feGaussianBlur in="BackgroundImageFix" stdDeviation="50"/>
<feComposite in2="SourceAlpha" operator="in" result="effect1_backgroundBlur_1859_6104"/>
<feBlend mode="normal" in="SourceGraphic" in2="effect1_backgroundBlur_1859_6104" result="shape"/>
</filter>
<clipPath id="clip0_1859_6104">
<rect width="384" height="196" fill="white"/>
</clipPath>
</defs>
</svg>
