<svg width="380" height="188" viewBox="0 0 380 188" fill="none" xmlns="http://www.w3.org/2000/svg">
<g clip-path="url(#clip0_1_118)">
<g filter="url(#filter0_f_1_118)">
<path d="M150 149.925L147 153V151.118L149.118 149.016L147 146.882V145L150 148.043V149.925Z" fill="white"/>
</g>
<g filter="url(#filter1_f_1_118)">
<path d="M234 61.0745L237 58L237 59.8824L234.882 61.9843L237 64.1176L237 66L234 62.9569L234 61.0745Z" fill="white"/>
</g>
<g filter="url(#filter2_f_1_118)">
<path d="M249 62.9255L246 66L246 64.1176L248.118 62.0157L246 59.8824L246 58L249 61.0431L249 62.9255Z" fill="white"/>
</g>
<g filter="url(#filter3_f_1_118)">
<path d="M130 76.0745L133 73L133 74.8824L130.882 76.9843L133 79.1176L133 81L130 77.9569L130 76.0745Z" fill="white"/>
</g>
<g filter="url(#filter4_f_1_118)">
<path d="M144 76.0745L141 73L141 74.8824L143.118 76.9843L141 79.1176L141 81L144 77.9569L144 76.0745Z" fill="white"/>
</g>
<g filter="url(#filter5_f_1_118)">
<path d="M100.698 128L108 136L103.529 136L98.5373 130.353L93.4706 136L89 136L96.2275 128L100.698 128Z" fill="white"/>
</g>
</g>
<defs>
<filter id="filter0_f_1_118" x="145" y="143" width="7" height="12" filterUnits="userSpaceOnUse" color-interpolation-filters="sRGB">
<feFlood flood-opacity="0" result="BackgroundImageFix"/>
<feBlend mode="normal" in="SourceGraphic" in2="BackgroundImageFix" result="shape"/>
<feGaussianBlur stdDeviation="1" result="effect1_foregroundBlur_1_118"/>
</filter>
<filter id="filter1_f_1_118" x="232" y="56" width="7" height="12" filterUnits="userSpaceOnUse" color-interpolation-filters="sRGB">
<feFlood flood-opacity="0" result="BackgroundImageFix"/>
<feBlend mode="normal" in="SourceGraphic" in2="BackgroundImageFix" result="shape"/>
<feGaussianBlur stdDeviation="1" result="effect1_foregroundBlur_1_118"/>
</filter>
<filter id="filter2_f_1_118" x="244" y="56" width="7" height="12" filterUnits="userSpaceOnUse" color-interpolation-filters="sRGB">
<feFlood flood-opacity="0" result="BackgroundImageFix"/>
<feBlend mode="normal" in="SourceGraphic" in2="BackgroundImageFix" result="shape"/>
<feGaussianBlur stdDeviation="1" result="effect1_foregroundBlur_1_118"/>
</filter>
<filter id="filter3_f_1_118" x="128" y="71" width="7" height="12" filterUnits="userSpaceOnUse" color-interpolation-filters="sRGB">
<feFlood flood-opacity="0" result="BackgroundImageFix"/>
<feBlend mode="normal" in="SourceGraphic" in2="BackgroundImageFix" result="shape"/>
<feGaussianBlur stdDeviation="1" result="effect1_foregroundBlur_1_118"/>
</filter>
<filter id="filter4_f_1_118" x="139" y="71" width="7" height="12" filterUnits="userSpaceOnUse" color-interpolation-filters="sRGB">
<feFlood flood-opacity="0" result="BackgroundImageFix"/>
<feBlend mode="normal" in="SourceGraphic" in2="BackgroundImageFix" result="shape"/>
<feGaussianBlur stdDeviation="1" result="effect1_foregroundBlur_1_118"/>
</filter>
<filter id="filter5_f_1_118" x="87" y="126" width="23" height="12" filterUnits="userSpaceOnUse" color-interpolation-filters="sRGB">
<feFlood flood-opacity="0" result="BackgroundImageFix"/>
<feBlend mode="normal" in="SourceGraphic" in2="BackgroundImageFix" result="shape"/>
<feGaussianBlur stdDeviation="1" result="effect1_foregroundBlur_1_118"/>
</filter>
<clipPath id="clip0_1_118">
<rect width="380" height="188" fill="white"/>
</clipPath>
</defs>
</svg>
