<svg width="384" height="196" viewBox="0 0 384 196" fill="none" xmlns="http://www.w3.org/2000/svg">
<g filter="url(#filter0_f_38_3847)">
<circle cx="194.146" cy="220" r="113" fill="#00FFB2"/>
</g>
<g filter="url(#filter1_b_38_3847)">
<rect x="-16" width="400" height="196" fill="white" fill-opacity="0.01"/>
</g>
<path fill-rule="evenodd" clip-rule="evenodd" d="M324 120.675L236 196L236 149.882L298.118 98.3843L236 46.1177L236 5.34696e-05L324 74.5569L324 120.675ZM216 120.675L128 196L128 149.882L190.118 98.3843L128 46.1177L128 4.76524e-05L216 74.5569L216 120.675ZM20 196L108 120.675L108 74.5569L20 4.18353e-05L20 46.1177L82.1177 98.3843L20 149.882L20 196Z" fill="url(#paint0_linear_38_3847)" fill-opacity="0.05"/>
<defs>
<filter id="filter0_f_38_3847" x="-218.854" y="-193" width="826" height="826" filterUnits="userSpaceOnUse" color-interpolation-filters="sRGB">
<feFlood flood-opacity="0" result="BackgroundImageFix"/>
<feBlend mode="normal" in="SourceGraphic" in2="BackgroundImageFix" result="shape"/>
<feGaussianBlur stdDeviation="150" result="effect1_foregroundBlur_38_3847"/>
</filter>
<filter id="filter1_b_38_3847" x="-116" y="-100" width="600" height="396" filterUnits="userSpaceOnUse" color-interpolation-filters="sRGB">
<feFlood flood-opacity="0" result="BackgroundImageFix"/>
<feGaussianBlur in="BackgroundImageFix" stdDeviation="50"/>
<feComposite in2="SourceAlpha" operator="in" result="effect1_backgroundBlur_38_3847"/>
<feBlend mode="normal" in="SourceGraphic" in2="effect1_backgroundBlur_38_3847" result="shape"/>
</filter>
<linearGradient id="paint0_linear_38_3847" x1="322.317" y1="98.0001" x2="17.7055" y2="98.0028" gradientUnits="userSpaceOnUse">
<stop stop-color="white"/>
<stop offset="1" stop-color="white" stop-opacity="0"/>
</linearGradient>
</defs>
</svg>
